<svg width="36" height="35" viewBox="0 0 36 35" fill="none" xmlns="http://www.w3.org/2000/svg">
<path d="M31.2911 28.5759C32.0665 27.9514 32.565 26.9957 32.565 25.9249C32.565 24.048 31.0387 22.5217 29.1618 22.5217C27.285 22.5217 25.7587 24.048 25.7587 25.9249C25.7587 26.9957 26.2572 27.9514 27.0326 28.5759C25.8222 29.0172 24.7859 29.8198 24.0571 30.8572V30.4624C24.0571 27.7705 22.3402 25.4785 19.9472 24.6056C20.4684 24.1864 20.8649 23.6181 21.068 22.9647C21.2988 23.0418 21.5404 23.0889 21.7883 23.0889C23.0395 23.0889 24.0571 22.0713 24.0571 20.8201V19.4906L25.812 21.2455C26.1699 21.604 26.5953 21.8365 27.0411 21.9165C27.1835 21.942 27.3253 21.955 27.4659 21.955C28.0655 21.955 28.6321 21.7231 29.0649 21.2903C29.4925 20.8615 29.729 20.292 29.729 19.6857C29.729 19.0794 29.4925 18.5099 29.0978 18.118L24.8103 13.0047C24.1858 12.26 23.4541 11.6151 22.6357 11.0887L16.9745 7.44899C16.1691 6.93114 15.2406 6.6016 14.29 6.49667L11.6797 6.20683L12.3808 5.50578L7.60838 0.733385L0 8.34176L4.77239 13.1142L5.18418 12.7024L5.80866 13.9508C6.31744 14.9683 6.98332 15.8917 7.78761 16.696C8.17614 17.0845 8.5987 17.4458 9.04338 17.7697L14.1323 21.4707C14.2281 21.5404 14.3291 21.6 14.4318 21.655C14.4232 21.7543 14.4147 21.8541 14.4147 21.9545C14.4147 23.0253 14.9133 23.9811 15.6887 24.6056C13.2957 25.4785 11.5788 27.7705 11.5788 30.4624V30.8566C10.8499 29.8192 9.81363 29.0172 8.60324 28.5754C9.3786 27.9515 9.87716 26.9957 9.87716 25.9249C9.87716 24.048 8.35084 22.5217 6.47398 22.5217C4.59713 22.5217 3.0708 24.048 3.0708 25.9249C3.0708 26.9957 3.56937 27.9514 4.34473 28.5759C1.95172 29.4488 0.234819 31.7409 0.234819 34.4328V35H12.7131V34.4328C12.7131 33.177 12.3371 32.0092 11.6967 31.0296H23.9397C23.2987 32.0092 22.9227 33.177 22.9227 34.4328V35H35.401V34.4328C35.401 31.7409 33.6841 29.4488 31.2911 28.5759ZM4.2052 25.9249C4.2052 24.6736 5.22275 23.6561 6.47398 23.6561C7.72522 23.6561 8.74277 24.6736 8.74277 25.9249C8.74277 27.1761 7.72522 28.1936 6.47398 28.1936C5.22275 28.1936 4.2052 27.1761 4.2052 25.9249ZM8.05362 29.5833L6.47398 31.3206L4.89434 29.5833C5.39291 29.4205 5.9221 29.328 6.47398 29.328C7.02586 29.328 7.55506 29.4205 8.05362 29.5833ZM1.40041 33.8656C1.57851 32.2638 2.50077 30.8844 3.81213 30.0796L6.47398 33.0074L9.13527 30.0796C10.4466 30.8844 11.3695 32.2638 11.547 33.8656H1.40041ZM18.2252 18.578C18.0856 18.1872 17.8622 17.8281 17.5479 17.5451L13.3955 13.8078L17.7771 15.0029C18.0227 15.0698 18.2547 15.1753 18.4668 15.3166C19.1259 15.7567 19.5195 16.4924 19.5195 17.2847V19.0119C19.1298 18.7856 18.6925 18.6341 18.2252 18.578ZM28.2623 18.8837C28.4767 19.0981 28.5947 19.3828 28.5947 19.6857C28.5947 19.9886 28.4767 20.2733 28.2623 20.4877C27.9951 20.7554 27.6247 20.8677 27.2425 20.8002C26.9685 20.7509 26.7496 20.579 26.6146 20.4435L24.0571 17.8865V13.8714L28.2623 18.8837ZM1.60403 8.34176L7.60838 2.33742L10.7767 5.50578L4.77239 11.5101L1.60403 8.34176ZM9.71097 16.8525C9.31394 16.5633 8.93618 16.2411 8.58963 15.8946C7.87155 15.1765 7.2777 14.3523 6.82338 13.4437L6.02987 11.8572L10.6531 7.23403L14.1652 7.62482C14.9434 7.71104 15.7028 7.98046 16.3619 8.40415L22.0231 12.0439C22.339 12.2469 22.638 12.4738 22.9233 12.716V20.8201C22.9233 21.4457 22.4145 21.9545 21.7889 21.9545C21.5841 21.9545 21.3867 21.8983 21.2137 21.7962C21.1842 21.1632 20.9846 20.5745 20.6545 20.0771V17.2842C20.6545 16.1118 20.072 15.0233 19.0964 14.3728C18.7822 14.1635 18.439 14.0069 18.076 13.9082L12.2963 12.332C12.1255 12.286 11.9435 12.3212 11.8028 12.4284C11.6616 12.5362 11.5788 12.7024 11.5788 12.8793V13.4465C11.5788 13.6076 11.6468 13.7608 11.7665 13.868L16.789 18.3879C17.0823 18.6523 17.2507 19.03 17.2507 19.4254C17.2507 20.1939 16.6245 20.8201 15.856 20.8201H15.62C15.3234 20.8201 15.0398 20.7276 14.7999 20.5535L9.71097 16.8525ZM15.5491 21.9545C15.5491 21.9528 15.5497 21.9511 15.5497 21.9488C15.5735 21.9494 15.5962 21.9545 15.62 21.9545H15.856C17.1373 21.9545 18.1877 20.9931 18.3522 19.756C19.3448 19.9977 20.0867 20.8881 20.0867 21.9545C20.0867 23.2057 19.0691 24.2233 17.8179 24.2233C16.5667 24.2233 15.5491 23.2057 15.5491 21.9545ZM19.3976 25.6129L17.8179 27.3502L16.2383 25.6129C16.7368 25.4501 17.266 25.3577 17.8179 25.3577C18.3698 25.3577 18.899 25.4501 19.3976 25.6129ZM12.7443 29.8952C12.9224 28.2935 13.8447 26.914 15.1561 26.1092L17.8179 29.0371L20.4792 26.1092C21.7906 26.914 22.7134 28.2935 22.8909 29.8952H12.7443ZM26.8931 25.9249C26.8931 24.6736 27.9106 23.6561 29.1618 23.6561C30.4131 23.6561 31.4306 24.6736 31.4306 25.9249C31.4306 27.1761 30.4131 28.1936 29.1618 28.1936C27.9106 28.1936 26.8931 27.1761 26.8931 25.9249ZM30.7415 29.5833L29.1618 31.3206L27.5822 29.5833C28.0808 29.4205 28.61 29.328 29.1618 29.328C29.7137 29.328 30.2429 29.4205 30.7415 29.5833ZM24.0883 33.8656C24.2664 32.2638 25.1886 30.8844 26.5 30.0796L29.1618 33.0074L31.8231 30.0796C33.1345 30.8844 34.0573 32.2638 34.2349 33.8656H24.0883Z" fill="#20282D"/>
<path d="M35.2348 0.802016L34.4328 0L30.2962 4.13657L29.5629 3.40318L28.7608 4.2052L30.2962 5.7406L35.2348 0.802016Z" fill="#20282D"/>
<path d="M30.2962 10.6105C31.2344 10.6105 31.9978 9.8471 31.9978 8.90896C31.9978 7.97081 31.2344 7.20737 30.2962 7.20737C29.3581 7.20737 28.5947 7.97081 28.5947 8.90896C28.5947 9.8471 29.3581 10.6105 30.2962 10.6105ZM30.2962 8.34176C30.6088 8.34176 30.8634 8.59643 30.8634 8.90896C30.8634 9.22148 30.6088 9.47615 30.2962 9.47615C29.9837 9.47615 29.729 9.22148 29.729 8.90896C29.729 8.59643 29.9837 8.34176 30.2962 8.34176Z" fill="#20282D"/>
<path d="M20.6539 3.80419H27.4603V4.93858H20.6539V3.80419Z" fill="#20282D"/>
<path d="M20.6539 8.34176H25.1915V9.47615H20.6539V8.34176Z" fill="#20282D"/>
<path d="M26.3259 8.34176H27.4603V9.47615H26.3259V8.34176Z" fill="#20282D"/>
<path d="M20.6539 6.07297H27.4603V7.20737H20.6539V6.07297Z" fill="#20282D"/>
</svg>
