<svg width="66" height="65" viewBox="0 0 66 65" fill="none" xmlns="http://www.w3.org/2000/svg">
<path d="M23.0198 51.5677L24.7389 50.3768L25.9445 52.0973L24.2254 53.2883L23.0198 51.5677Z" fill="#20282D"/>
<path d="M26.8452 48.9168L41.1998 38.9723L42.4053 40.6929L28.0508 50.6374L26.8452 48.9168Z" fill="#20282D"/>
<path d="M62.5911 14.2455C62.2411 13.0304 61.7529 11.8604 61.1351 10.7523L62.6386 8.33782L56.9841 2.71532L54.556 4.21032C53.4415 3.59597 52.2649 3.11056 51.0429 2.7625L50.3892 0H42.3931L41.7394 2.7625C40.5174 3.11056 39.3407 3.59597 38.2263 4.21032L35.7981 2.71532L30.1437 8.33782L31.6472 10.7523C31.0293 11.8604 30.5412 13.0304 30.1911 14.2455L27.4129 14.8955V16.9042C26.9142 17.029 26.4377 17.2397 26.0254 17.5479L18.9076 22.8548C18.7262 22.9901 18.5016 23.0645 18.2749 23.0645H15.6981C17.0698 21.731 17.9238 19.8753 17.9238 17.8226C17.9238 13.7769 14.6122 10.4839 10.5434 10.4839C6.47473 10.4839 3.16303 13.7769 3.16303 17.8226C3.16303 20.2213 4.33124 22.3474 6.12679 23.6873C2.55151 25.0407 0 28.4752 0 32.5V60.8064C0 63.1192 1.89149 65 4.21738 65H65.3693V14.8955L62.5911 14.2455ZM5.27172 17.8226C5.27172 14.9322 7.63661 12.5806 10.5434 12.5806C13.4503 12.5806 15.8152 14.9322 15.8152 17.8226C15.8152 20.713 13.4503 23.0645 10.5434 23.0645C7.63661 23.0645 5.27172 20.713 5.27172 17.8226ZM2.10869 32.5C2.10869 28.4543 5.42038 25.1613 9.4891 25.1613H18.2749C18.956 25.1613 19.6298 24.9369 20.1728 24.5312L27.2896 19.2243C27.5964 18.9968 27.9749 18.871 28.3576 18.871H28.7983C29.7778 18.871 30.576 19.6646 30.576 20.6396C30.576 21.189 30.3261 21.6974 29.8896 22.035L23.2072 27.2035C22.2878 27.9144 21.1385 28.3064 19.9703 28.3064H11.5978V39.8387H15.8152C17.559 39.8387 18.9782 41.2498 18.9782 42.9839V52.4183C18.9782 53.5757 18.0324 54.5161 16.8685 54.5161C16.3054 54.5161 15.7751 54.2981 15.3766 53.9018C14.9791 53.5055 14.7598 52.9792 14.7598 52.4194L14.7608 46.129C14.7608 44.9727 13.8151 44.0323 12.6521 44.0323H5.27172C3.52783 44.0323 2.10869 42.6211 2.10869 40.8871V32.5ZM15.8152 37.7419H13.7065V30.4032H19.9703C21.6046 30.4032 23.2135 29.8549 24.5019 28.8569L30.441 24.2639C30.7626 25.2053 31.1601 26.1185 31.6472 26.9897L30.1437 29.4041L35.7981 35.0266L38.2263 33.5316C38.8895 33.8975 39.5811 34.2015 40.2854 34.4741L21.0869 47.7624V42.9839C21.0869 40.0935 18.722 37.7419 15.8152 37.7419ZM8.43475 46.129H12.6521L12.6511 52.4183C12.6511 52.7831 12.7133 53.1343 12.8029 53.4782L8.43475 56.5133V46.129ZM2.10869 60.8064V45.0534C2.99223 45.7191 4.08031 46.129 5.27172 46.129H6.32606V60.8064C6.32606 61.9628 5.38032 62.9032 4.21738 62.9032C3.05443 62.9032 2.10869 61.9628 2.10869 60.8064ZM63.2606 62.9032H7.84854C8.21123 62.2836 8.43475 61.5739 8.43475 60.8064V59.0714L13.833 55.3202C13.852 55.3402 13.8657 55.3643 13.8857 55.3842C14.6828 56.1768 15.7424 56.6129 16.8685 56.6129C19.1943 56.6129 21.0869 54.731 21.0869 52.4183V50.3163L41.9513 35.8758L42.3931 37.7419H50.3892L51.0429 34.9794C52.2649 34.6314 53.4415 34.146 54.556 33.5316L56.9841 35.0266L62.6386 29.4041L61.1351 26.9897C61.7529 25.8815 62.2411 24.7115 62.5911 23.4965L63.2606 23.3402V62.9032ZM63.2606 21.1858L60.8641 21.7467L60.7102 22.3715C60.3559 23.8141 59.7813 25.1896 59.0053 26.4634L58.67 27.0117L59.9658 29.0938L56.6731 32.3679L54.5792 31.0794L54.0277 31.4128C52.7467 32.1844 51.3634 32.7558 49.9126 33.1081L49.2843 33.2611L48.7191 35.6452H44.0631L43.4991 33.2622L42.8707 33.1091C41.4199 32.7569 40.0366 32.1855 38.7556 31.4139L38.2042 31.0805L36.1102 32.3689L32.8175 29.0948L34.1133 27.0127L33.778 26.4644C33.04 25.2546 32.4917 23.9504 32.1343 22.5854C32.4791 22.0014 32.6847 21.341 32.6847 20.6396C32.6847 18.7546 31.3193 17.1862 29.5216 16.8476V16.5572L31.9182 15.9963L32.0721 15.3715C32.4263 13.9289 33.001 12.5534 33.777 11.2796L34.1122 10.7313L32.8165 8.64919L36.1092 5.37508L38.2031 6.66355L38.7545 6.33016C40.0355 5.55855 41.4188 4.98718 42.8696 4.63492L43.498 4.48185L44.0631 2.09677H48.7191L49.2832 4.47976L49.9116 4.63282C51.3624 4.98508 52.7457 5.55645 54.0267 6.32806L54.5781 6.66145L56.672 5.37298L59.9648 8.6471L58.669 10.7292L59.0042 11.2775C59.7802 12.5513 60.3549 13.9268 60.7091 15.3694L60.8631 15.9942L63.2606 16.5561V21.1858Z" fill="#20282D"/>
<path d="M46.3911 6.29032C39.4145 6.29032 33.739 11.9338 33.739 18.871C33.739 25.8081 39.4145 31.4516 46.3911 31.4516C53.3677 31.4516 59.0433 25.8081 59.0433 18.871C59.0433 11.9338 53.3677 6.29032 46.3911 6.29032ZM46.3911 29.3548C40.5775 29.3548 35.8477 24.6518 35.8477 18.871C35.8477 13.0902 40.5775 8.3871 46.3911 8.3871C52.2048 8.3871 56.9346 13.0902 56.9346 18.871C56.9346 24.6518 52.2048 29.3548 46.3911 29.3548Z" fill="#20282D"/>
<path d="M46.3911 12.5806C42.9023 12.5806 40.0651 15.4019 40.0651 18.871C40.0651 22.3401 42.9023 25.1613 46.3911 25.1613C49.88 25.1613 52.7172 22.3401 52.7172 18.871C52.7172 15.4019 49.88 12.5806 46.3911 12.5806ZM46.3911 23.0645C44.0653 23.0645 42.1738 21.1837 42.1738 18.871C42.1738 16.5582 44.0653 14.6774 46.3911 14.6774C48.717 14.6774 50.6085 16.5582 50.6085 18.871C50.6085 21.1837 48.717 23.0645 46.3911 23.0645Z" fill="#20282D"/>
<path d="M59.0433 58.7097H61.1519V60.8064H59.0433V58.7097Z" fill="#20282D"/>
<path d="M59.0433 54.5161H61.1519V56.6129H59.0433V54.5161Z" fill="#20282D"/>
<path d="M59.0433 50.3226H61.1519V52.4194H59.0433V50.3226Z" fill="#20282D"/>
<path d="M10.5434 58.7097H12.6521V60.8064H10.5434V58.7097Z" fill="#20282D"/>
<path d="M14.7608 58.7097H16.8695V60.8064H14.7608V58.7097Z" fill="#20282D"/>
<path d="M18.9782 58.7097H21.0869V60.8064H18.9782V58.7097Z" fill="#20282D"/>
</svg>
