<svg width="45" height="45" viewBox="0 0 45 45" fill="none" xmlns="http://www.w3.org/2000/svg">
<path d="M26.0156 37.9688H24.6094V31.0781C24.6094 30.8916 24.5353 30.7128 24.4034 30.5809C24.2716 30.4491 24.0927 30.375 23.9062 30.375C23.7198 30.375 23.5409 30.4491 23.4091 30.5809C23.2772 30.7128 23.2031 30.8916 23.2031 31.0781V37.9688H4.92188V23.9062H10.7719C10.9584 23.9062 11.1372 23.8322 11.2691 23.7003C11.4009 23.5684 11.475 23.3896 11.475 23.2031C11.475 23.0166 11.4009 22.8378 11.2691 22.7059C11.1372 22.5741 10.9584 22.5 10.7719 22.5H4.21875C4.03227 22.5 3.85343 22.5741 3.72157 22.7059C3.5897 22.8378 3.51562 23.0166 3.51562 23.2031V37.9688H2.10938C1.92289 37.9688 1.74405 38.0428 1.61219 38.1747C1.48033 38.3066 1.40625 38.4854 1.40625 38.6719V40.0781C1.40625 41.0105 1.77665 41.9047 2.43595 42.564C3.09526 43.2234 3.98947 43.5938 4.92188 43.5938H23.2031C24.1355 43.5938 25.0297 43.2234 25.689 42.564C26.3484 41.9047 26.7188 41.0105 26.7188 40.0781V38.6719C26.7188 38.4854 26.6447 38.3066 26.5128 38.1747C26.3809 38.0428 26.2021 37.9688 26.0156 37.9688ZM25.3125 40.0781C25.3125 40.6376 25.0903 41.1741 24.6947 41.5697C24.2991 41.9653 23.7626 42.1875 23.2031 42.1875H21.7969V41.4844C21.7969 41.2979 21.7228 41.1191 21.5909 40.9872C21.4591 40.8553 21.2802 40.7812 21.0938 40.7812C20.9073 40.7812 20.7284 40.8553 20.5966 40.9872C20.4647 41.1191 20.3906 41.2979 20.3906 41.4844V42.1875H7.73438V41.4844C7.73438 41.2979 7.6603 41.1191 7.52843 40.9872C7.39657 40.8553 7.21773 40.7812 7.03125 40.7812C6.84477 40.7812 6.66593 40.8553 6.53407 40.9872C6.4022 41.1191 6.32812 41.2979 6.32812 41.4844V42.1875H4.92188C4.36243 42.1875 3.82591 41.9653 3.43032 41.5697C3.03474 41.1741 2.8125 40.6376 2.8125 40.0781V39.375H25.3125V40.0781Z" fill="#20282D"/>
<path d="M37.9688 5.625H39.375C39.5615 5.625 39.7403 5.55092 39.8722 5.41906C40.004 5.2872 40.0781 5.10836 40.0781 4.92188C40.0781 4.73539 40.004 4.55655 39.8722 4.42469C39.7403 4.29283 39.5615 4.21875 39.375 4.21875H37.9688C37.4093 4.21875 36.8728 4.44099 36.4772 4.83657C36.0816 5.23216 35.8594 5.76868 35.8594 6.32812V7.03125H35.1562C34.9698 7.03125 34.7909 7.10533 34.6591 7.23719C34.5272 7.36905 34.4531 7.54789 34.4531 7.73438C34.4531 7.92086 34.5272 8.0997 34.6591 8.23156C34.7909 8.36342 34.9698 8.4375 35.1562 8.4375H35.8594V10.5469C35.8594 10.7334 35.9335 10.9122 36.0653 11.0441C36.1972 11.1759 36.376 11.25 36.5625 11.25C36.749 11.25 36.9278 11.1759 37.0597 11.0441C37.1915 10.9122 37.2656 10.7334 37.2656 10.5469V8.4375H37.9688C38.1552 8.4375 38.3341 8.36342 38.4659 8.23156C38.5978 8.0997 38.6719 7.92086 38.6719 7.73438C38.6719 7.54789 38.5978 7.36905 38.4659 7.23719C38.3341 7.10533 38.1552 7.03125 37.9688 7.03125H37.2656V6.32812C37.2656 6.14164 37.3397 5.9628 37.4716 5.83094C37.6034 5.69908 37.7823 5.625 37.9688 5.625Z" fill="#20282D"/>
<path d="M41.4844 1.40625H33.0469C32.4874 1.40625 31.9509 1.62849 31.5553 2.02407C31.1597 2.41966 30.9375 2.95618 30.9375 3.51562V4.92188C30.9375 5.10836 31.0116 5.2872 31.1434 5.41906C31.2753 5.55092 31.4541 5.625 31.6406 5.625C31.8271 5.625 32.0059 5.55092 32.1378 5.41906C32.2697 5.2872 32.3438 5.10836 32.3438 4.92188V3.51562C32.3438 3.32914 32.4178 3.1503 32.5497 3.01844C32.6816 2.88658 32.8604 2.8125 33.0469 2.8125H41.4844C41.6709 2.8125 41.8497 2.88658 41.9816 3.01844C42.1134 3.1503 42.1875 3.32914 42.1875 3.51562V11.9531C42.1875 12.1396 42.1134 12.3184 41.9816 12.4503C41.8497 12.5822 41.6709 12.6562 41.4844 12.6562H33.0469C32.8604 12.6562 32.6816 12.5822 32.5497 12.4503C32.4178 12.3184 32.3438 12.1396 32.3438 11.9531V7.73438C32.3438 7.54789 32.2697 7.36905 32.1378 7.23719C32.0059 7.10533 31.8271 7.03125 31.6406 7.03125C31.4541 7.03125 31.2753 7.10533 31.1434 7.23719C31.0116 7.36905 30.9375 7.54789 30.9375 7.73438V11.9531C30.9375 12.5126 31.1597 13.0491 31.5553 13.4447C31.9509 13.8403 32.4874 14.0625 33.0469 14.0625H41.4844C42.0438 14.0625 42.5803 13.8403 42.9759 13.4447C43.3715 13.0491 43.5938 12.5126 43.5938 11.9531V3.51562C43.5938 2.95618 43.3715 2.41966 42.9759 2.02407C42.5803 1.62849 42.0438 1.40625 41.4844 1.40625Z" fill="#20282D"/>
<path d="M34.4531 29.5313C34.4531 30.0875 34.6181 30.6313 34.9271 31.0938C35.2362 31.5563 35.6754 31.9168 36.1893 32.1297C36.7032 32.3425 37.2688 32.3982 37.8143 32.2897C38.3599 32.1812 38.861 31.9133 39.2544 31.52C39.6477 31.1267 39.9156 30.6255 40.0241 30.0799C40.1326 29.5344 40.0769 28.9689 39.864 28.455C39.6512 27.941 39.2907 27.5018 38.8282 27.1927C38.3657 26.8837 37.8219 26.7188 37.2656 26.7188C36.5197 26.7188 35.8043 27.0151 35.2769 27.5425C34.7494 28.07 34.4531 28.7853 34.4531 29.5313ZM38.6719 29.5313C38.6719 29.8094 38.5894 30.0813 38.4349 30.3125C38.2804 30.5438 38.0607 30.724 37.8038 30.8305C37.5468 30.9369 37.2641 30.9647 36.9913 30.9105C36.7185 30.8562 36.4679 30.7223 36.2713 30.5256C36.0746 30.329 35.9407 30.0784 35.8864 29.8056C35.8321 29.5328 35.86 29.2501 35.9664 28.9931C36.0729 28.7361 36.2531 28.5165 36.4844 28.362C36.7156 28.2075 36.9875 28.125 37.2656 28.125C37.6386 28.125 37.9963 28.2732 38.26 28.5369C38.5237 28.8006 38.6719 29.1583 38.6719 29.5313Z" fill="#20282D"/>
<path d="M41.4844 23.2031H33.0469C32.4874 23.2031 31.9509 23.4254 31.5553 23.8209C31.1597 24.2165 30.9375 24.7531 30.9375 25.3125V33.75C30.9375 34.3094 31.1597 34.846 31.5553 35.2416C31.9509 35.6371 32.4874 35.8594 33.0469 35.8594H41.4844C42.0438 35.8594 42.5803 35.6371 42.9759 35.2416C43.3715 34.846 43.5938 34.3094 43.5938 33.75V32.3438C43.5938 32.1573 43.5197 31.9784 43.3878 31.8466C43.2559 31.7147 43.0771 31.6406 42.8906 31.6406C42.7041 31.6406 42.5253 31.7147 42.3934 31.8466C42.2616 31.9784 42.1875 32.1573 42.1875 32.3438V33.75C42.1875 33.9365 42.1134 34.1153 41.9816 34.2472C41.8497 34.379 41.6709 34.4531 41.4844 34.4531H33.0469C32.8604 34.4531 32.6816 34.379 32.5497 34.2472C32.4178 34.1153 32.3438 33.9365 32.3438 33.75V25.3125C32.3438 25.126 32.4178 24.9472 32.5497 24.8153C32.6816 24.6835 32.8604 24.6094 33.0469 24.6094H41.4844C41.6709 24.6094 41.8497 24.6835 41.9816 24.8153C42.1134 24.9472 42.1875 25.126 42.1875 25.3125V29.5312C42.1875 29.7177 42.2616 29.8966 42.3934 30.0284C42.5253 30.1603 42.7041 30.2344 42.8906 30.2344C43.0771 30.2344 43.2559 30.1603 43.3878 30.0284C43.5197 29.8966 43.5938 29.7177 43.5938 29.5312V25.3125C43.5938 24.7531 43.3715 24.2165 42.9759 23.8209C42.5803 23.4254 42.0438 23.2031 41.4844 23.2031Z" fill="#20282D"/>
<path d="M17.2055 9.73823C17.3174 9.80757 17.4465 9.84412 17.5781 9.84369C17.6882 9.84303 17.7966 9.81654 17.8945 9.76635L22.1133 7.65698C22.2285 7.59797 22.3251 7.50833 22.3926 7.39791C22.4601 7.2875 22.4958 7.1606 22.4958 7.0312C22.4958 6.90179 22.4601 6.77489 22.3926 6.66448C22.3251 6.55406 22.2285 6.46442 22.1133 6.40541L17.8945 4.29604C17.7875 4.2421 17.6684 4.21643 17.5487 4.22144C17.4289 4.22646 17.3125 4.262 17.2103 4.3247C17.1082 4.3874 17.0237 4.47517 16.965 4.57968C16.9064 4.68419 16.8754 4.80196 16.875 4.92182V9.14057C16.8748 9.26006 16.905 9.37764 16.9628 9.48221C17.0206 9.58679 17.1041 9.6749 17.2055 9.73823ZM18.2813 6.06088L20.2219 7.0312L18.2813 8.00151V6.06088Z" fill="#20282D"/>
<path d="M18.9844 13.3594C20.236 13.3594 21.4594 12.9882 22.5001 12.2929C23.5407 11.5976 24.3518 10.6092 24.8308 9.45292C25.3098 8.29661 25.4351 7.02423 25.1909 5.7967C24.9467 4.56916 24.344 3.4416 23.459 2.55659C22.574 1.67159 21.4465 1.06889 20.2189 0.824721C18.9914 0.580549 17.719 0.705867 16.5627 1.18483C15.4064 1.66379 14.4181 2.47488 13.7227 3.51553C13.0274 4.55619 12.6562 5.77967 12.6562 7.03125C12.6563 8.70957 13.323 10.3192 14.5097 11.5059C15.6965 12.6927 17.3061 13.3594 18.9844 13.3594ZM18.9844 2.10938C19.9578 2.10938 20.9094 2.39804 21.7188 2.93886C22.5282 3.47969 23.1591 4.24838 23.5316 5.14773C23.9041 6.04709 24.0016 7.03671 23.8117 7.99146C23.6218 8.94621 23.153 9.82321 22.4647 10.5115C21.7763 11.1999 20.8993 11.6686 19.9446 11.8586C18.9898 12.0485 18.0002 11.951 17.1009 11.5785C16.2015 11.2059 15.4328 10.5751 14.892 9.7657C14.3512 8.9563 14.0625 8.00471 14.0625 7.03125C14.0625 5.72589 14.5811 4.47399 15.5041 3.55096C16.4271 2.62793 17.679 2.10938 18.9844 2.10938Z" fill="#20282D"/>
<path d="M26.0156 16.1719C26.1248 16.1719 26.2324 16.1465 26.3301 16.0977C26.4277 16.0488 26.5126 15.978 26.5781 15.8906L28.6875 13.0781C28.7994 12.9289 28.8474 12.7414 28.8211 12.5568C28.7947 12.3722 28.6961 12.2056 28.5469 12.0938C28.3977 11.9819 28.2102 11.9338 28.0256 11.9602C27.841 11.9866 27.6744 12.0852 27.5625 12.2344L25.4531 15.0469C25.3412 15.1961 25.2932 15.3836 25.3196 15.5682C25.3459 15.7528 25.4446 15.9194 25.5938 16.0313C25.7155 16.1225 25.8635 16.1719 26.0156 16.1719Z" fill="#20282D"/>
<path d="M27.5625 18.7031C27.628 18.7905 27.7129 18.8613 27.8106 18.9102C27.9082 18.959 28.0158 18.9844 28.125 18.9844C28.2771 18.9844 28.4252 18.935 28.5469 18.8438L31.3594 16.7344C31.5086 16.6225 31.6072 16.4559 31.6336 16.2713C31.6599 16.0867 31.6119 15.8992 31.5 15.75C31.3881 15.6008 31.2216 15.5022 31.037 15.4758C30.8523 15.4494 30.6648 15.4975 30.5156 15.6094L27.7031 17.7188C27.5539 17.8306 27.4553 17.9972 27.4289 18.1818C27.4026 18.3664 27.4506 18.554 27.5625 18.7031Z" fill="#20282D"/>
<path d="M34.4531 20.2499C34.4364 20.1567 34.401 20.0679 34.3491 19.9886C34.2972 19.9094 34.2298 19.8415 34.151 19.789C34.0722 19.7365 33.9836 19.7004 33.8905 19.6829C33.7975 19.6655 33.7018 19.667 33.6093 19.6874L30.0937 20.3906C30.0014 20.3998 29.9118 20.4271 29.83 20.471C29.7482 20.5149 29.6759 20.5744 29.6171 20.6462C29.4985 20.7913 29.4423 20.9775 29.4609 21.164C29.4796 21.3505 29.5715 21.5219 29.7166 21.6406C29.8616 21.7593 30.0479 21.8155 30.2343 21.7968H30.375L33.8906 21.0937C33.9838 21.077 34.0727 21.0416 34.1519 20.9897C34.2311 20.9378 34.299 20.8704 34.3516 20.7916C34.4041 20.7128 34.4402 20.6242 34.4576 20.5312C34.4751 20.4381 34.4735 20.3424 34.4531 20.2499Z" fill="#20282D"/>
<path d="M2.10938 20.3906H10.5469C10.7334 20.3906 10.9122 20.3165 11.0441 20.1847C11.1759 20.0528 11.25 19.874 11.25 19.6875V8.4375C11.25 8.25102 11.1759 8.07218 11.0441 7.94032C10.9122 7.80845 10.7334 7.73438 10.5469 7.73438H2.10938C1.92289 7.73438 1.74405 7.80845 1.61219 7.94032C1.48033 8.07218 1.40625 8.25102 1.40625 8.4375V19.6875C1.40625 19.874 1.48033 20.0528 1.61219 20.1847C1.74405 20.3165 1.92289 20.3906 2.10938 20.3906ZM2.8125 9.14062H9.84375V18.9844H2.8125V9.14062Z" fill="#20282D"/>
<path d="M7.73438 10.5469H6.32812C6.14164 10.5469 5.9628 10.621 5.83094 10.7528C5.69908 10.8847 5.625 11.0635 5.625 11.25C5.625 11.4365 5.69908 11.6153 5.83094 11.7472C5.9628 11.879 6.14164 11.9531 6.32812 11.9531H7.73438C7.92086 11.9531 8.0997 11.879 8.23156 11.7472C8.36342 11.6153 8.4375 11.4365 8.4375 11.25C8.4375 11.0635 8.36342 10.8847 8.23156 10.7528C8.0997 10.621 7.92086 10.5469 7.73438 10.5469Z" fill="#20282D"/>
<path d="M7.73438 13.3594H4.92188C4.73539 13.3594 4.55655 13.4335 4.42469 13.5653C4.29283 13.6972 4.21875 13.876 4.21875 14.0625C4.21875 14.249 4.29283 14.4278 4.42469 14.5597C4.55655 14.6915 4.73539 14.7656 4.92188 14.7656H7.73438C7.92086 14.7656 8.0997 14.6915 8.23156 14.5597C8.36342 14.4278 8.4375 14.249 8.4375 14.0625C8.4375 13.876 8.36342 13.6972 8.23156 13.5653C8.0997 13.4335 7.92086 13.3594 7.73438 13.3594Z" fill="#20282D"/>
<path d="M7.73438 16.1719H4.92188C4.73539 16.1719 4.55655 16.246 4.42469 16.3778C4.29283 16.5097 4.21875 16.6885 4.21875 16.875C4.21875 17.0615 4.29283 17.2403 4.42469 17.3722C4.55655 17.504 4.73539 17.5781 4.92188 17.5781H7.73438C7.92086 17.5781 8.0997 17.504 8.23156 17.3722C8.36342 17.2403 8.4375 17.0615 8.4375 16.875C8.4375 16.6885 8.36342 16.5097 8.23156 16.3778C8.0997 16.246 7.92086 16.1719 7.73438 16.1719Z" fill="#20282D"/>
<path d="M25.3969 20.1797C25.3508 20.0994 25.2892 20.029 25.2158 19.9724C25.1424 19.9159 25.0586 19.8743 24.9692 19.8502C24.8797 19.826 24.7864 19.8197 24.6945 19.8316C24.6026 19.8435 24.514 19.8734 24.4336 19.9196C24.3533 19.9658 24.2829 20.0273 24.2263 20.1007C24.1698 20.1741 24.1282 20.2579 24.1041 20.3473C24.0799 20.4368 24.0736 20.5301 24.0855 20.622C24.0974 20.7139 24.1273 20.8025 24.1735 20.8829L27.2743 26.2477L16.0243 30.4665C16.0243 30.4665 16.0243 30.4665 15.975 30.4665H15.9188L14.0907 31.5212L12.8743 32.2243C12.7141 32.3169 12.5373 32.3769 12.3539 32.4011C12.1705 32.4252 11.9842 32.4129 11.8055 32.3649C11.4466 32.268 11.1408 32.0328 10.9547 31.711L9.54849 29.2782C9.38305 28.9599 9.3455 28.5904 9.44353 28.2453C9.54156 27.9003 9.76776 27.6057 10.0758 27.4219L12.5086 26.0157L14.2665 29.0602C14.3284 29.1675 14.4176 29.2565 14.525 29.3183C14.6324 29.38 14.7543 29.4123 14.8782 29.4118C15.0018 29.4123 15.1234 29.3801 15.2307 29.3186C15.338 29.2571 15.4272 29.1684 15.4892 29.0614C15.5512 28.9545 15.584 28.833 15.5841 28.7094C15.5842 28.5857 15.5517 28.4642 15.4899 28.3571L13.6758 25.2212L22.5 17.9438L22.7883 18.443C22.8345 18.5234 22.896 18.5938 22.9694 18.6504C23.0428 18.7069 23.1266 18.7484 23.2161 18.7726C23.3055 18.7968 23.3989 18.8031 23.4908 18.7912C23.5826 18.7792 23.6713 18.7494 23.7516 18.7032C23.8319 18.657 23.9024 18.5955 23.9589 18.5221C24.0155 18.4487 24.057 18.3649 24.0812 18.2754C24.1053 18.186 24.1116 18.0926 24.0997 18.0008C24.0878 17.9089 24.0579 17.8202 24.0118 17.7399L23.3086 16.5235C23.2571 16.4354 23.187 16.3596 23.1032 16.3013C23.0195 16.243 22.924 16.2037 22.8235 16.186C22.7224 16.1669 22.6184 16.1703 22.5188 16.1958C22.4192 16.2213 22.3264 16.2684 22.2469 16.3337L12.4032 24.4477L9.40786 26.1774C8.87033 26.4905 8.45177 26.973 8.21767 27.5493C7.98357 28.1256 7.94715 28.7633 8.11411 29.3626L7.41099 29.7633C7.04871 29.9714 6.75636 30.2823 6.57101 30.6567C6.38567 31.0311 6.31567 31.4521 6.3699 31.8664C6.42412 32.2806 6.60013 32.6694 6.87561 32.9835C7.15108 33.2975 7.51361 33.5228 7.91724 33.6305C8.09617 33.6779 8.28057 33.7016 8.46567 33.7008C8.83557 33.6993 9.19882 33.6024 9.52036 33.4196L10.2235 33.0188C10.5612 33.3677 10.986 33.6202 11.454 33.7501C11.6942 33.8173 11.9427 33.8504 12.1922 33.8485C12.6865 33.8496 13.172 33.7185 13.5985 33.4688L14.2102 33.1172L15.6165 35.5571C15.8959 36.0403 16.3555 36.393 16.8945 36.538C17.4336 36.6829 18.0081 36.6083 18.4922 36.3305C18.7324 36.1921 18.943 36.0078 19.1119 35.7879C19.2807 35.5681 19.4046 35.3172 19.4765 35.0494C19.5483 34.7817 19.5667 34.5024 19.5305 34.2276C19.4943 33.9528 19.4043 33.6877 19.2657 33.4477L17.986 31.2188L28.5329 27.2602C28.6285 27.2243 28.7152 27.1679 28.7868 27.095C28.8585 27.0222 28.9134 26.9346 28.9477 26.8383C28.9819 26.7432 28.9952 26.6419 28.9867 26.5412C28.9783 26.4405 28.9481 26.3428 28.8985 26.2547L25.3969 20.1797ZM8.78911 32.1962C8.70904 32.2424 8.62063 32.2725 8.52893 32.2845C8.43723 32.2966 8.34406 32.2905 8.25474 32.2665C8.07459 32.2197 7.92036 32.1034 7.82583 31.943C7.77954 31.863 7.7495 31.7745 7.73744 31.6828C7.72537 31.5911 7.73152 31.498 7.75552 31.4087C7.77952 31.3189 7.82109 31.2347 7.87781 31.1611C7.93453 31.0875 8.00529 31.0259 8.08599 30.9797L8.69771 30.6282L9.40083 31.8446L8.78911 32.1962ZM18.0422 34.1649C18.0885 34.245 18.1186 34.3334 18.1306 34.4251C18.1427 34.5168 18.1365 34.61 18.1125 34.6993C18.0624 34.878 17.9436 35.0297 17.7821 35.1212C17.6215 35.2134 17.431 35.2386 17.2519 35.1912C17.0729 35.1438 16.9198 35.0277 16.8258 34.868L15.4196 32.4282L16.5868 31.7602H16.643L18.0422 34.1649Z" fill="#20282D"/>
</svg>
