<svg width="35" height="35" viewBox="0 0 35 35" fill="none" xmlns="http://www.w3.org/2000/svg">
<path d="M0.547134 35H22.1043C22.2493 35 22.3884 34.9424 22.491 34.8398C22.5936 34.7372 22.6512 34.5981 22.6512 34.4531V29.2226C22.6596 28.4281 22.4137 27.6518 21.9495 27.0069C21.4852 26.3621 20.8269 25.8827 20.0708 25.6386L14.5469 23.7973V22.053C14.5469 22.0341 14.5459 22.0154 14.5441 21.997C15.2432 21.446 15.791 20.7264 16.1362 19.9059C16.5357 19.9048 16.9267 19.7901 17.2635 19.5751C17.6003 19.3601 17.869 19.0538 18.0382 18.6918C18.2073 18.3298 18.27 17.9272 18.2189 17.5309C18.1679 17.1347 18.0051 16.7611 17.7496 16.4539C17.8311 16.0771 17.9677 15.3816 18.0267 14.9814C18.0447 14.8588 18.0625 14.7437 18.0794 14.6349C18.2381 13.6125 18.3337 12.9954 17.7188 11.8376C17.0507 10.5807 16.0295 9.54677 14.7811 8.86314C13.5326 8.1795 12.1113 7.87607 10.6925 7.99024C9.2737 8.1044 7.91928 8.63117 6.79616 9.50564C5.67304 10.3801 4.8303 11.564 4.37179 12.9116C4.36205 12.9402 4.35471 12.9695 4.34984 12.9994C4.16751 14.1121 4.32249 15.2737 4.80946 16.4549C4.55449 16.7619 4.39203 17.1351 4.341 17.5309C4.28996 17.9267 4.35247 18.3289 4.52123 18.6906C4.68999 19.0522 4.95805 19.3585 5.29418 19.5736C5.63031 19.7888 6.02066 19.904 6.41975 19.9058C6.77473 20.7456 7.34047 21.4796 8.06224 22.0367C8.07591 22.0474 8.09033 22.0572 8.10428 22.0677V23.7973L2.58033 25.6386C1.82425 25.8827 1.16604 26.3622 0.701847 27.007C0.237654 27.6518 -0.00819721 28.4282 0.000208586 29.2226V34.4531C0.000208586 34.5981 0.057831 34.7372 0.160399 34.8398C0.262968 34.9424 0.402081 35 0.547134 35ZM12.6696 27.7169L12.4496 28.9741H10.2017L10.0051 27.8497C9.99505 27.7927 9.97604 27.7377 9.94872 27.6867L11.3257 26.7091L12.6801 27.6709C12.6762 27.6858 12.6724 27.7011 12.6696 27.7169ZM10.3508 30.068H12.3013L12.9723 33.9061H9.67908L10.3508 30.068ZM21.5577 29.2226V33.9061H18.942V31.5129C18.942 31.3679 18.8843 31.2288 18.7818 31.1262C18.6792 31.0236 18.5401 30.966 18.395 30.966C18.25 30.966 18.1109 31.0236 18.0083 31.1262C17.9057 31.2288 17.8481 31.3679 17.8481 31.5129V33.9061H14.0827L13.39 29.9463L13.6657 28.3705L15.2313 29.4823C15.3131 29.5404 15.4093 29.5749 15.5094 29.5819C15.6096 29.589 15.7097 29.5684 15.7989 29.5223C15.888 29.4763 15.9628 29.4066 16.015 29.3209C16.0672 29.2352 16.0949 29.1367 16.0949 29.0364V25.4661L19.7251 26.6762C20.2622 26.8497 20.7297 27.1904 21.0593 27.6486C21.389 28.1067 21.5638 28.6582 21.5577 29.2226ZM15.0014 25.1015V27.9771L12.2708 26.038L14.0406 24.7812L15.0014 25.1015ZM16.4754 18.7503C16.5849 18.1177 16.5778 17.4705 16.4545 16.8404C16.6533 16.9076 16.8262 17.0348 16.9495 17.2046C17.0727 17.3743 17.1401 17.5782 17.1424 17.788C17.1447 17.9977 17.0818 18.203 16.9623 18.3754C16.8428 18.5478 16.6726 18.6788 16.4754 18.7503ZM5.42222 13.2207C5.81915 12.0819 6.53956 11.0835 7.49523 10.3479C8.45091 9.61226 9.60036 9.17127 10.8028 9.07895C12.0053 8.98662 13.2086 9.24696 14.2654 9.82808C15.3222 10.4092 16.1866 11.2859 16.7527 12.3508C17.1971 13.1872 17.1469 13.5098 16.9985 14.4672C16.9812 14.5787 16.9629 14.6965 16.9444 14.8221C16.9071 15.0757 16.8358 15.4587 16.7694 15.7919C16.5625 15.7257 16.3466 15.692 16.1293 15.6922H16.1098C15.4915 13.6516 14.793 12.5952 13.9184 12.374C13.535 12.2768 12.9375 12.3029 12.2701 12.9778C12.2385 13.0097 12.2109 13.0453 12.188 13.0839C11.1878 14.7739 9.40159 15.5811 6.88006 15.4835C6.79385 15.4802 6.70808 15.4973 6.62977 15.5335C6.55147 15.5698 6.48287 15.624 6.42959 15.6919C6.19173 15.6919 5.9556 15.7324 5.73131 15.8116C5.39946 14.9167 5.29541 14.047 5.42222 13.2207ZM5.41744 17.7991C5.41777 17.5949 5.47976 17.3955 5.5953 17.2271C5.71083 17.0587 5.87452 16.9291 6.06493 16.8553C5.95662 17.4811 5.95928 18.121 6.07279 18.7458C5.88045 18.6731 5.71477 18.5436 5.59772 18.3745C5.48067 18.2055 5.4178 18.0047 5.41744 17.7991ZM7.24773 16.5856H7.29121C9.98037 16.5856 11.9304 15.6172 13.0923 13.7031C13.2564 13.5459 13.4727 13.389 13.6502 13.4344C13.8177 13.4767 14.4183 13.8001 15.1151 16.1837C15.1208 16.2033 15.1277 16.2226 15.1356 16.2414C15.4917 17.0921 15.5565 18.0366 15.32 18.928C15.0836 19.8193 14.559 20.6075 13.8281 21.1698C13.0971 21.7321 12.2008 22.0369 11.2786 22.0369C10.3564 22.0369 9.46012 21.7319 8.72921 21.1696C8.05226 20.6412 7.54925 19.9221 7.28517 19.1049C7.02108 18.2878 7.00804 17.4102 7.24773 16.5856ZM11.2786 23.1293C12.0286 23.1292 12.7699 22.9693 13.4533 22.6603V23.8564L11.3257 25.3673L9.19813 23.8564V22.7031C9.85559 22.9845 10.5634 23.1295 11.2786 23.1293ZM8.61135 24.7812L10.3811 26.038L7.65033 27.9771V25.1015L8.61135 24.7812ZM1.09406 29.2226C1.08793 28.6583 1.26243 28.1067 1.59207 27.6486C1.92171 27.1905 2.3892 26.8498 2.92626 26.6763L6.55648 25.4662V29.0365C6.55649 29.1368 6.58411 29.2352 6.63632 29.3209C6.68853 29.4067 6.76332 29.4763 6.85249 29.5224C6.94167 29.5684 7.04179 29.5891 7.1419 29.582C7.24201 29.5749 7.33825 29.5404 7.42008 29.4823L8.98565 28.3706L9.26123 29.9463L8.56869 33.9061H4.80324V31.5129C4.80324 31.3679 4.74562 31.2288 4.64305 31.1262C4.54048 31.0236 4.40137 30.966 4.25632 30.966C4.11126 30.966 3.97215 31.0236 3.86958 31.1262C3.76701 31.2288 3.70939 31.3679 3.70939 31.5129V33.9061H1.09406V29.2226ZM35.0035 12.1071C35.0035 12.2521 34.9458 12.3912 34.8433 12.4938C34.7407 12.5964 34.6016 12.654 34.4565 12.654H20.0529C19.9078 12.654 19.7687 12.5964 19.6662 12.4938C19.5636 12.3912 19.506 12.2521 19.506 12.1071C19.506 11.962 19.5636 11.8229 19.6662 11.7203C19.7687 11.6178 19.9078 11.5601 20.0529 11.5601H22.1287V8.15552C22.1287 8.01046 22.1863 7.87135 22.2889 7.76878C22.3914 7.66621 22.5306 7.60859 22.6756 7.60859C22.8207 7.60859 22.9598 7.66621 23.0623 7.76878C23.1649 7.87135 23.2225 8.01046 23.2225 8.15552V11.5601H25.1814V5.37809C25.1814 5.23304 25.239 5.09393 25.3416 4.99136C25.4442 4.88879 25.5833 4.83117 25.7283 4.83117C25.8734 4.83117 26.0125 4.88879 26.1151 4.99136C26.2176 5.09393 26.2753 5.23304 26.2753 5.37809V11.5601H28.2342V6.61667C28.2342 6.47162 28.2918 6.33251 28.3943 6.22994C28.4969 6.12737 28.636 6.06975 28.7811 6.06975C28.9261 6.06975 29.0652 6.12737 29.1678 6.22994C29.2704 6.33251 29.328 6.47162 29.328 6.61667V11.5601H31.287V3.80165C31.287 3.65659 31.3446 3.51748 31.4471 3.41491C31.5497 3.31234 31.6888 3.25472 31.8339 3.25472C31.9789 3.25472 32.118 3.31234 32.2206 3.41491C32.3232 3.51748 32.3808 3.65659 32.3808 3.80165V11.5601H34.4565C34.6016 11.5601 34.7407 11.6178 34.8433 11.7203C34.9458 11.8229 35.0035 11.962 35.0035 12.1071ZM31.4631 0.14162C31.5699 0.0447829 31.7107 -0.00591861 31.8548 0.000551121C31.9989 0.00702085 32.1346 0.0701381 32.2324 0.176165C32.3301 0.282191 32.3821 0.422544 32.3769 0.566674C32.3717 0.710804 32.3097 0.847043 32.2046 0.945738L29.1518 3.76076C29.0756 3.83107 28.9809 3.87825 28.8789 3.89679C28.7768 3.91534 28.6716 3.90448 28.5755 3.8655L25.8418 2.75634L23.0437 5.30193C22.9363 5.39869 22.7949 5.44897 22.6505 5.44179C22.5061 5.43461 22.3704 5.37056 22.2731 5.26363C22.1758 5.1567 22.1248 5.01559 22.1313 4.87116C22.1377 4.72674 22.2011 4.59073 22.3075 4.49289L25.3603 1.7154C25.4365 1.64596 25.5308 1.59948 25.6323 1.58134C25.7338 1.56319 25.8384 1.57412 25.934 1.61285L28.6653 2.72099L31.4631 0.14162ZM19.9341 17.2454C19.8126 17.2724 19.704 17.3401 19.6262 17.4371C19.5483 17.5342 19.5059 17.6549 19.5059 17.7793V19.1597C19.5059 19.2841 19.5483 19.4048 19.6262 19.5018C19.704 19.5989 19.8126 19.6665 19.9341 19.6935L20.3535 19.7868C20.4227 20.0004 20.5089 20.2081 20.611 20.408L20.3803 20.7707C20.3135 20.8757 20.2845 21.0003 20.2981 21.124C20.3117 21.2477 20.367 21.3631 20.455 21.4511L21.4311 22.4269C21.5191 22.5149 21.6344 22.5702 21.7581 22.5838C21.8817 22.5974 22.0063 22.5684 22.1113 22.5017L22.474 22.271C22.6739 22.3732 22.8817 22.4593 23.0952 22.5285L23.1885 22.9479C23.2155 23.0693 23.2831 23.1779 23.3802 23.2558C23.4772 23.3336 23.5979 23.376 23.7224 23.3761H25.1025C25.2269 23.376 25.3476 23.3336 25.4447 23.2558C25.5418 23.1779 25.6094 23.0693 25.6364 22.9479L25.7296 22.5285C25.9433 22.4593 26.151 22.3732 26.351 22.271L26.7133 22.5017C26.8183 22.5684 26.9429 22.5974 27.0665 22.5838C27.1902 22.5702 27.3056 22.5149 27.3935 22.4269L28.3696 21.4511C28.4576 21.3631 28.513 21.2477 28.5265 21.124C28.5401 21.0003 28.5111 20.8757 28.4443 20.7707L28.2136 20.408C28.3158 20.2081 28.4019 20.0004 28.4712 19.7868L28.8905 19.6935C29.012 19.6665 29.1206 19.5989 29.1984 19.5018C29.2763 19.4048 29.3187 19.2841 29.3187 19.1597V17.7792C29.3187 17.6547 29.2763 17.534 29.1984 17.437C29.1206 17.3399 29.012 17.2723 28.8905 17.2453L28.4711 17.152C28.4019 16.9385 28.3158 16.7308 28.2136 16.5309L28.4443 16.1681C28.5111 16.0631 28.5401 15.9385 28.5265 15.8148C28.5129 15.6911 28.4575 15.5758 28.3695 15.4878L27.3936 14.5119C27.3056 14.4239 27.1902 14.3686 27.0666 14.355C26.9429 14.3414 26.8183 14.3704 26.7133 14.4372L26.351 14.6679C26.151 14.5657 25.9432 14.4796 25.7296 14.4103L25.6364 13.9909C25.6094 13.8695 25.5417 13.7609 25.4447 13.6831C25.3476 13.6052 25.2269 13.5628 25.1025 13.5628H23.7224C23.598 13.5628 23.4773 13.6052 23.3802 13.6831C23.2831 13.7609 23.2155 13.8695 23.1885 13.9909L23.0952 14.4103C22.8817 14.4795 22.6739 14.5657 22.474 14.6679L22.1113 14.4372C22.0063 14.3704 21.8817 14.3414 21.758 14.355C21.6344 14.3686 21.519 14.4239 21.431 14.5119L20.4552 15.4878C20.3672 15.5758 20.3119 15.6911 20.2983 15.8148C20.2847 15.9385 20.3137 16.0631 20.3804 16.1681L20.6112 16.5309C20.509 16.7308 20.4228 16.9385 20.3536 17.1521L19.9341 17.2454ZM20.5998 18.2179L20.9103 18.1489C21.0107 18.1266 21.1028 18.0764 21.176 18.0041C21.2491 17.9318 21.3004 17.8403 21.324 17.7402C21.4021 17.4084 21.5335 17.0914 21.7132 16.8017C21.7674 16.7143 21.7958 16.6133 21.7952 16.5104C21.7946 16.4076 21.765 16.3069 21.7097 16.2201L21.5388 15.9513L21.8943 15.5958L22.1632 15.7667C22.25 15.8218 22.3505 15.8514 22.4533 15.852C22.556 15.8526 22.6569 15.8242 22.7443 15.7702C23.034 15.5905 23.351 15.459 23.6829 15.381C23.783 15.3574 23.8745 15.3062 23.9468 15.233C24.0191 15.1599 24.0693 15.0678 24.0917 14.9674L24.1607 14.6568H24.6636L24.7326 14.9674C24.7549 15.0678 24.8052 15.1599 24.8775 15.233C24.9498 15.3062 25.0412 15.3575 25.1414 15.381C25.4732 15.459 25.7902 15.5905 26.08 15.7702C26.1674 15.8243 26.2682 15.8526 26.371 15.852C26.4738 15.8514 26.5743 15.8218 26.6611 15.7667L26.9299 15.5958L27.2854 15.9513L27.1145 16.2201C27.0593 16.3069 27.0297 16.4076 27.0291 16.5104C27.0285 16.6133 27.0569 16.7143 27.111 16.8017C27.2908 17.0915 27.4222 17.4084 27.5003 17.7403C27.5239 17.8404 27.5752 17.9319 27.6483 18.0041C27.7215 18.0764 27.8135 18.1266 27.9139 18.1489L28.2245 18.2179V18.7209L27.9139 18.7899C27.8135 18.8123 27.7215 18.8625 27.6483 18.9348C27.5752 19.0071 27.5239 19.0985 27.5003 19.1986C27.4222 19.5305 27.2907 19.8474 27.111 20.1372C27.0569 20.2246 27.0285 20.3256 27.0291 20.4285C27.0297 20.5313 27.0593 20.6319 27.1145 20.7187L27.2854 20.9876L26.9299 21.3431L26.6611 21.1721C26.5743 21.117 26.4738 21.0875 26.371 21.0869C26.2682 21.0863 26.1673 21.1146 26.08 21.1687C25.7902 21.3484 25.4732 21.4798 25.1414 21.5579C25.0412 21.5814 24.9498 21.6327 24.8775 21.7059C24.8052 21.779 24.755 21.8711 24.7327 21.9715L24.6636 22.2821H24.1607L24.0917 21.9715C24.0694 21.871 24.0192 21.779 23.9469 21.7058C23.8746 21.6326 23.7831 21.5813 23.6829 21.5578C23.3511 21.4798 23.0341 21.3484 22.7444 21.1687C22.657 21.1146 22.5561 21.0862 22.4533 21.0868C22.3506 21.0875 22.25 21.117 22.1633 21.1721L21.8944 21.3431L21.5389 20.9876L21.7098 20.7187C21.765 20.6319 21.7947 20.5313 21.7953 20.4285C21.7959 20.3256 21.7675 20.2246 21.7133 20.1372C21.5336 19.8474 21.4021 19.5304 21.324 19.1985C21.3005 19.0984 21.2492 19.007 21.176 18.9347C21.1028 18.8624 21.0108 18.8123 20.9104 18.7899L20.5998 18.7209L20.5998 18.2179ZM24.4124 20.7868C24.8708 20.7868 25.3189 20.6508 25.7 20.3962C26.0812 20.1415 26.3782 19.7796 26.5536 19.3561C26.729 18.9326 26.7749 18.4666 26.6855 18.017C26.5961 17.5675 26.3754 17.1545 26.0512 16.8304C25.7271 16.5063 25.3142 16.2855 24.8646 16.1961C24.415 16.1067 23.949 16.1526 23.5255 16.328C23.1021 16.5034 22.7401 16.8005 22.4854 17.1816C22.2308 17.5627 22.0948 18.0108 22.0948 18.4692C22.0955 19.0836 22.3399 19.6727 22.7744 20.1072C23.2089 20.5417 23.798 20.7861 24.4124 20.7868ZM24.4124 17.2454C24.6545 17.2454 24.8911 17.3172 25.0923 17.4517C25.2936 17.5861 25.4504 17.7773 25.543 18.0009C25.6357 18.2245 25.6599 18.4705 25.6127 18.7079C25.5655 18.9453 25.4489 19.1633 25.2778 19.3345C25.1066 19.5056 24.8886 19.6222 24.6512 19.6694C24.4138 19.7166 24.1677 19.6924 23.9441 19.5998C23.7205 19.5071 23.5294 19.3503 23.3949 19.149C23.2605 18.9478 23.1887 18.7112 23.1887 18.4692C23.189 18.1447 23.3181 17.8337 23.5475 17.6042C23.7769 17.3748 24.088 17.2458 24.4124 17.2454Z" fill="#20282D"/>
</svg>
