<svg width="45" height="45" viewBox="0 0 45 45" fill="none" xmlns="http://www.w3.org/2000/svg">
<g clip-path="url(#clip0_3_1244)">
<path d="M11.3382 4.34009C9.81199 4.34009 8.57031 5.58865 8.57031 7.12336C8.57031 8.65806 9.81199 9.90672 11.3382 9.90672C12.8645 9.90672 14.1062 8.65806 14.1062 7.12336C14.1062 5.58865 12.8645 4.34009 11.3382 4.34009ZM11.3382 8.59013C10.534 8.59013 9.87964 7.93218 9.87964 7.12336C9.87964 6.31462 10.534 5.65668 11.3382 5.65668C12.1426 5.65668 12.7969 6.31462 12.7969 7.12336C12.7968 7.93218 12.1425 8.59013 11.3382 8.59013Z" fill="#20282D"/>
<path d="M14.1063 19.5888V17.0437C14.1063 16.68 13.8133 16.3853 13.4516 16.3853H6.78333C6.42169 16.3853 6.12866 16.68 6.12866 17.0437V19.5888C6.12866 19.9525 6.42169 20.2472 6.78333 20.2472H13.4517C13.8133 20.2472 14.1063 19.9525 14.1063 19.5888ZM12.797 18.9304H7.43799V17.7021H12.7971V18.9304H12.797Z" fill="#20282D"/>
<path d="M41.703 5.46346H37.5475C36.8238 5.46346 36.1926 5.86837 35.8656 6.46449H18.4231V6.04721C18.4231 5.73594 18.2062 5.46733 17.9033 5.40318L16.308 5.06549C16.3051 5.05847 16.3022 5.05145 16.2992 5.04443L17.1898 3.67159C17.359 3.41087 17.3233 3.06669 17.1044 2.84669L15.5916 1.32572C15.3727 1.10563 15.0304 1.06965 14.771 1.23981L13.4054 2.13526C13.3984 2.13236 13.3915 2.12947 13.3845 2.12648L13.0486 0.522582C12.9849 0.217984 12.7176 0 12.408 0H10.2685C9.95887 0 9.69168 0.217984 9.62788 0.522582L9.29199 2.12648C9.28501 2.12938 9.27811 2.13228 9.27113 2.13526L7.90559 1.23981C7.64625 1.06974 7.30391 1.1058 7.08499 1.32572L5.57211 2.8466C5.35319 3.06678 5.31757 3.41096 5.48665 3.67159L6.37734 5.04452C6.37446 5.05154 6.37158 5.05847 6.36861 5.06549L4.77324 5.40318C4.47027 5.46724 4.25344 5.73594 4.25344 6.04721V6.46449H4.23607C2.49929 6.46449 1.08618 7.88507 1.08618 9.63122V30.1048C1.08618 31.8508 2.49921 33.2715 4.23607 33.2715H6.71628C7.03279 35.5648 9.03623 37.306 11.338 37.306C12.0168 37.306 12.6614 37.1584 13.2438 36.8955L11.7631 42.7201C11.1751 45.0326 14.84 45.8182 15.4048 43.5977L18.0299 33.2717H20.1612V43.1589C20.1612 44.1225 20.9652 44.9308 21.9237 44.9308C22.8823 44.9308 23.6861 44.1225 23.6861 43.1589V33.2715H25.8176L28.4426 43.5974C29.0069 45.8175 32.6724 45.0333 32.0843 42.7199L29.6825 33.2715H39.6115C41.3483 33.2715 42.7614 31.8509 42.7614 30.1048V15.8837C42.7614 15.5201 42.4684 15.2255 42.1068 15.2255C41.7451 15.2255 41.4521 15.5201 41.4521 15.8837V30.1048C41.4521 31.1251 40.6264 31.9552 39.6115 31.9552L15.9594 31.9553C15.64 29.6784 13.6898 27.9208 11.3381 27.9208C9.03623 27.9208 7.03288 29.6616 6.71637 31.9552H4.23607C3.22117 31.9552 2.39551 31.1251 2.39551 30.1048V10.9886H5.38356C5.39622 11.1393 5.45942 11.2855 5.57211 11.3988L7.08499 12.9197C7.30382 13.1396 7.64599 13.1757 7.9055 13.0056L9.27104 12.1101C9.27802 12.113 9.28501 12.1159 9.29199 12.1189L9.62788 13.7228C9.6916 14.0274 9.95887 14.2454 10.2685 14.2454H12.408C12.7176 14.2454 12.9848 14.0274 13.0486 13.7228L13.3845 12.1189C13.3915 12.116 13.3985 12.1131 13.4055 12.1101L14.771 13.0056C15.0305 13.1757 15.3728 13.1397 15.5916 12.9197L17.1044 11.3988C17.2171 11.2855 17.2802 11.1393 17.2928 10.9886H35.3937L29.2907 17.1242L26.156 13.9736C25.6681 13.481 24.8574 13.4812 24.3688 13.9726L22.3337 16.0185C22.078 16.2755 22.078 16.6923 22.3337 16.9492C22.5893 17.2062 23.0039 17.2063 23.2594 16.9493L25.2619 14.9363L28.3976 18.0879C28.8858 18.5784 29.6961 18.5799 30.1839 18.0878L39.0933 9.13075C39.2805 8.94243 39.3365 8.65942 39.2351 8.41344C39.1339 8.16747 38.8951 8.00714 38.6303 8.00714H37.5473C36.76 8.00714 36.7608 6.77979 37.5473 6.77979H41.7029C42.0299 6.77979 42.2961 7.04692 42.2961 7.37521V11.553C42.2961 11.8881 42.0184 12.1672 41.6852 12.1672C41.3484 12.1672 41.0743 11.8916 41.0743 11.553V10.4652C41.0743 10.199 40.9148 9.9589 40.6702 9.8571C40.4255 9.75504 40.144 9.81147 39.9568 9.99971L29.2912 20.7215L26.1551 17.5695C25.6634 17.0752 24.8625 17.075 24.3687 17.5696L18.9958 22.972C18.4458 23.5259 17.575 22.6646 18.1327 22.1035L21.0777 19.143C21.3333 18.8859 21.3333 18.4692 21.0777 18.2122C20.822 17.9553 20.4075 17.9552 20.1519 18.2122L17.207 21.1727C16.4441 21.9398 16.4755 23.2193 17.2632 23.9546C18.0089 24.6508 19.2031 24.6267 19.9222 23.9024L25.262 18.5333L28.3977 21.6848C28.8838 22.1752 29.6972 22.177 30.1839 21.6857L39.8174 12.0016C40.019 12.8505 40.78 13.4837 41.6852 13.4837C42.7311 13.4837 43.6055 12.6049 43.6055 11.5531V7.37521C43.6056 6.32101 42.7521 5.46346 41.703 5.46346ZM14.1362 43.2715C13.9911 43.8425 12.8667 43.6947 13.0318 43.046L14.9199 35.6186C15.4649 34.9633 15.8351 34.1568 15.9593 33.2716H16.6785L14.1362 43.2715ZM22.3769 43.1588C22.3769 43.7449 21.4706 43.7459 21.4706 43.1588V33.2715H22.3769V43.1588ZM30.8158 43.046C30.9804 43.6931 29.8564 43.842 29.7114 43.2715L27.1692 33.2715H28.3311L30.8158 43.046ZM10.5801 29.3231C10.8277 29.2661 11.0827 29.2371 11.3381 29.2371C13.1899 29.2371 14.6963 30.7511 14.6969 32.6122L14.6968 32.6133L14.6969 32.6145C14.6963 34.4756 13.1898 35.9896 11.3381 35.9896C9.5007 35.9896 7.97987 34.459 7.97987 32.6133C7.97987 31.0308 9.04941 29.6778 10.5801 29.3231ZM2.39551 9.63122C2.39551 8.61089 3.22117 7.78082 4.23607 7.78082H4.25344V8.19818C4.25344 8.50945 4.47027 8.77807 4.77324 8.84222L6.36861 9.1799C6.37149 9.18692 6.37437 9.19385 6.37734 9.20087L6.07148 9.67229H2.39551V9.63122ZM15.0413 11.6112L13.8183 10.8092C13.3742 10.5182 12.2853 10.9775 12.1775 11.4928L11.8768 12.9289H10.7997L10.499 11.4928C10.3899 10.9712 9.29679 10.5216 8.85817 10.8092L7.63517 11.6112L6.87349 10.8455L7.67122 9.61595C7.96058 9.16954 7.50389 8.07471 6.99133 7.96633L5.56277 7.66401V6.58129L6.99133 6.27897C7.51026 6.16928 7.95709 5.07032 7.67122 4.62935L6.87349 3.39981L7.63517 2.63406L8.85817 3.43606C9.3022 3.72705 10.3912 3.26783 10.499 2.75253L10.7998 1.31633H11.8769L12.1776 2.75253C12.2867 3.27415 13.3798 3.72354 13.8184 3.43606L15.0414 2.63406L15.803 3.39981L15.0053 4.62935C14.7157 5.07567 15.1728 6.17068 15.6853 6.27897L17.1137 6.58129V7.6641L15.6853 7.96642C15.1665 8.07602 14.7192 9.17516 15.0053 9.61604L15.803 10.8456L15.0413 11.6112ZM37.1017 9.27143L36.7031 9.6722H16.605L16.2992 9.20087C16.3021 9.19385 16.305 9.18683 16.308 9.17981L17.9033 8.84213C18.2062 8.77807 18.4231 8.50936 18.4231 8.19809V7.78073H35.667C35.8133 8.50673 36.3846 9.10092 37.1017 9.27143Z" fill="#20282D"/>
<path d="M38.1209 27.5568H25.7135C25.3519 27.5568 25.0588 27.8517 25.0588 28.2157C25.0588 28.5797 25.3519 28.8747 25.7135 28.8747H38.1209C38.4826 28.8747 38.7756 28.5797 38.7756 28.2157C38.7756 27.8517 38.4825 27.5568 38.1209 27.5568Z" fill="#20282D"/>
<path d="M38.1209 24.6692H30.765C30.4034 24.6692 30.1104 24.9641 30.1104 25.3281C30.1104 25.6921 30.4034 25.9871 30.765 25.9871H38.1209C38.4825 25.9871 38.7756 25.6921 38.7756 25.3281C38.7756 24.9641 38.4824 24.6692 38.1209 24.6692Z" fill="#20282D"/>
<path d="M6.78332 21.4288C6.42169 21.4288 6.12866 21.7238 6.12866 22.0878C6.12866 22.4518 6.42169 22.7467 6.78332 22.7467H11.3384C11.7 22.7467 11.993 22.4518 11.993 22.0878C11.993 21.7238 11.7 21.4288 11.3384 21.4288H6.78332Z" fill="#20282D"/>
<path d="M11.3383 34.1603C11.6999 34.1603 11.9929 33.8656 11.9929 33.5018V31.726C11.9929 31.3623 11.6999 31.0676 11.3383 31.0676C10.9766 31.0676 10.6836 31.3623 10.6836 31.726V33.5018C10.6836 33.8655 10.9766 34.1603 11.3383 34.1603Z" fill="#20282D"/>
</g>
<defs>
<clipPath id="clip0_3_1244">
<rect width="44.6917" height="44.9307" fill="white"/>
</clipPath>
</defs>
</svg>
