<svg width="45" height="45" viewBox="0 0 45 45" fill="none" xmlns="http://www.w3.org/2000/svg">
<g clip-path="url(#clip0_3_1237)">
<path d="M15.6229 10.5663C15.4936 10.9642 15.6209 11.3906 15.947 11.6528L18.8504 13.9865L17.8732 17.5811C17.7635 17.9847 17.9112 18.4045 18.2499 18.6507C18.5886 18.8965 19.0332 18.9073 19.3833 18.6783L22.5 16.638L25.6168 18.6783C25.7848 18.7883 25.9746 18.843 26.164 18.843C26.3693 18.843 26.5742 18.7787 26.75 18.6507C27.0888 18.4047 27.2367 17.9847 27.1267 17.5811L26.1495 13.9866L29.0528 11.653C29.3791 11.3909 29.5064 10.9644 29.377 10.5663C29.2477 10.1682 28.894 9.89789 28.4761 9.87768L24.7554 9.69627L23.4332 6.21387C23.2848 5.82267 22.9184 5.5698 22.4999 5.5698C22.0815 5.5698 21.715 5.82258 21.5667 6.21378L20.2444 9.69636L16.524 9.87768C16.1059 9.89789 15.7522 10.1682 15.6229 10.5663ZM20.5796 11.0878C20.9761 11.0685 21.3234 10.8162 21.4641 10.4451L22.4998 7.71741L23.5355 10.4454C23.6765 10.8163 24.0238 11.0685 24.42 11.0878L27.3342 11.23L25.06 13.0578C24.7505 13.3066 24.618 13.7149 24.7221 14.0977L25.4876 16.9132L23.0463 15.3151C22.8803 15.2065 22.69 15.1522 22.4997 15.1522C22.3094 15.1522 22.119 15.2066 21.9529 15.3152L19.5118 16.9132L20.2772 14.0979C20.3815 13.7148 20.2488 13.3065 19.9393 13.0578L17.6651 11.23L20.5796 11.0878ZM21.7967 3.28342V0.703125C21.7967 0.314824 22.1115 0 22.4998 0C22.8881 0 23.2029 0.314824 23.2029 0.703125V3.28342C23.2029 3.67172 22.8881 3.98654 22.4998 3.98654C22.1115 3.98654 21.7967 3.67172 21.7967 3.28342ZM26.0786 7.44926C25.8188 7.16071 25.8421 6.71607 26.1307 6.45627L29.006 3.86719C29.2946 3.6073 29.7392 3.63059 29.9991 3.91922C30.2589 4.20776 30.2356 4.6524 29.947 4.91221L27.0716 7.50129C26.9372 7.62231 26.769 7.6819 26.6013 7.6819C26.4091 7.6819 26.2175 7.60351 26.0786 7.44926ZM15.0006 3.91922C15.2604 3.63059 15.7049 3.6073 15.9936 3.86719L18.8691 6.45627C19.1576 6.71607 19.1809 7.16071 18.9211 7.44926C18.7822 7.60342 18.5906 7.6819 18.3983 7.6819C18.2307 7.6819 18.0625 7.62231 17.928 7.50129L15.0526 4.91221C14.7639 4.6524 14.7407 4.20776 15.0006 3.91922ZM31.5204 11.6528L34.4238 13.9865L33.4466 17.5811C33.3369 17.9847 33.4846 18.4045 33.8233 18.6507C34.1618 18.8965 34.6065 18.9072 34.9567 18.6783L38.0734 16.638L41.1902 18.6783C41.3582 18.7883 41.548 18.843 41.7374 18.843C41.9427 18.843 42.1476 18.7787 42.3235 18.6507C42.6621 18.4049 42.8099 17.9851 42.7001 17.5811L41.7229 13.9866L44.6262 11.653C44.9524 11.391 45.0797 10.9644 44.9503 10.5663C44.821 10.1682 44.4674 9.89789 44.0495 9.87768L40.3289 9.69627L39.0067 6.21387C38.8583 5.82267 38.4919 5.5698 38.0734 5.5698C37.6549 5.5698 37.2885 5.82258 37.14 6.21378L35.8179 9.69627L32.0975 9.87759C31.6793 9.8978 31.3256 10.1682 31.1963 10.5663C31.0669 10.9644 31.1942 11.3909 31.5204 11.6528ZM36.1529 11.0878C36.5496 11.0685 36.8969 10.8162 37.0377 10.445L38.0733 7.71732L39.1089 10.4449C39.2497 10.8162 39.5971 11.0685 39.9936 11.0878L42.9077 11.2299L40.6338 13.0576C40.3241 13.3063 40.1914 13.7146 40.2956 14.0977L41.0611 16.9131L38.6198 15.315C38.4537 15.2064 38.2634 15.1521 38.0732 15.1521C37.8828 15.1521 37.6924 15.2065 37.5264 15.3151L35.0853 16.9131L35.8507 14.0978C35.9549 13.7149 35.8224 13.3066 35.5128 13.0577L33.2386 11.2299L36.1529 11.0878ZM0.373356 11.6528L3.27682 13.9865L2.29957 17.5811C2.18988 17.9847 2.33762 18.4045 2.67627 18.6507C3.015 18.8965 3.45963 18.9073 3.8097 18.6783L6.92639 16.638L10.0432 18.6783C10.2112 18.7883 10.401 18.843 10.5904 18.843C10.7957 18.843 11.0006 18.7787 11.1764 18.6507C11.5151 18.4049 11.6629 17.9851 11.5531 17.5811L10.5759 13.9866L13.4792 11.653C13.8052 11.3912 13.9326 10.9647 13.8033 10.5659C13.6738 10.168 13.3201 9.8978 12.9025 9.87759L9.18184 9.69618L7.8597 6.21387C7.71126 5.82267 7.34484 5.5698 6.92639 5.5698C6.50786 5.5698 6.14144 5.82258 5.99299 6.21378L4.67086 9.69627L0.950446 9.87759C0.53235 9.8978 0.178678 10.1682 0.0494793 10.5659C-0.0801593 10.9641 0.0470184 11.3908 0.373356 11.6528ZM5.00589 11.0878C5.40254 11.0685 5.74989 10.8162 5.89069 10.445L6.9263 7.71732L7.96183 10.4449C8.10272 10.8162 8.45006 11.0685 8.84654 11.0878L11.7607 11.2299L9.48673 13.0576C9.17709 13.3063 9.04438 13.7146 9.14862 14.0977L9.91406 16.9131L7.47281 15.315C7.30669 15.2064 7.11641 15.1521 6.92613 15.1521C6.73576 15.1521 6.54539 15.2065 6.37936 15.3151L3.93829 16.9131L4.70373 14.0978C4.80788 13.7149 4.67534 13.3066 4.36579 13.0577L2.09162 11.2299L5.00589 11.0878ZM44.8892 37.3476C44.3944 35.75 43.3811 34.3154 42.0358 33.308C41.3917 32.8257 40.6904 32.4501 39.9505 32.1841C40.9763 31.3791 41.6372 30.1293 41.6372 28.7271C41.6372 26.3043 39.6661 24.3333 37.2434 24.3333C34.8206 24.3333 32.8495 26.3043 32.8495 28.7271C32.8495 30.1276 33.5088 31.3762 34.5326 32.1813C33.1605 32.6711 31.945 33.5315 31.0141 34.691C30.5791 34.0823 30.0772 33.517 29.513 33.0068C28.3763 31.9787 27.0422 31.2238 25.6054 30.7775C27.129 29.7675 28.1362 28.0381 28.1362 26.0772C28.1362 22.9693 25.6077 20.4409 22.4999 20.4409C19.3921 20.4409 16.8636 22.9693 16.8636 26.0772C16.8636 28.0381 17.8707 29.7675 19.3943 30.7775C17.9575 31.2237 16.6234 31.9787 15.4866 33.0068C14.9224 33.517 14.4206 34.0823 13.9856 34.6909C13.0548 33.5313 11.8393 32.6709 10.4672 32.1811C11.4908 31.3759 12.1503 30.1273 12.1503 28.7269C12.1503 26.3041 10.1791 24.333 7.75643 24.333C5.33364 24.333 3.36252 26.3041 3.36252 28.7269C3.36252 30.1289 4.02345 31.3788 5.04914 32.1839C4.30927 32.4498 3.60791 32.8255 2.96376 33.3077C1.61841 34.315 0.605124 35.7497 0.110388 37.3473C-0.118216 38.0852 0.0084344 38.8341 0.46696 39.4562C0.925397 40.0781 1.60339 40.4205 2.37594 40.4205H12.096V41.6895C12.096 43.515 13.5811 45.0001 15.4066 45.0001H29.593C31.4184 45.0001 32.9036 43.515 32.9037 41.6895V40.4209H42.6237C43.3963 40.4209 44.0743 40.0784 44.5327 39.4566C44.9911 38.8345 45.1178 38.0855 44.8892 37.3476ZM37.2434 25.7396C38.8907 25.7396 40.231 27.0798 40.231 28.7271C40.231 30.3746 38.8907 31.7148 37.2434 31.7148C35.596 31.7148 34.2557 30.3746 34.2557 28.7271C34.2557 27.0798 35.596 25.7396 37.2434 25.7396ZM18.2698 26.0772C18.2698 23.7447 20.1675 21.8471 22.4999 21.8471C24.8323 21.8471 26.73 23.7447 26.73 26.0772C26.73 28.4089 24.8336 30.3059 22.5022 30.3071C22.5014 30.3071 22.5005 30.3071 22.4998 30.3071C22.4991 30.3071 22.4983 30.3071 22.4975 30.3071C20.1661 30.3058 18.2698 28.4088 18.2698 26.0772ZM7.75643 25.7392C9.40376 25.7392 10.744 27.0795 10.744 28.7268C10.744 30.3742 9.40376 31.7145 7.75643 31.7145C6.10901 31.7145 4.76876 30.3742 4.76876 28.7268C4.76876 27.0795 6.10901 25.7392 7.75643 25.7392ZM12.1873 39.0142H2.37603C2.05242 39.0142 1.79103 38.8822 1.59899 38.6217C1.40686 38.3612 1.35808 38.0724 1.4538 37.7633C2.31372 34.9864 4.84664 33.1207 7.75643 33.1207C9.95747 33.1207 11.9625 34.1842 13.1957 35.9844C12.7082 36.9316 12.3667 37.9524 12.1873 39.0142ZM31.4974 41.6894C31.4974 42.7395 30.6431 43.5938 29.593 43.5938H15.4066C14.3566 43.5938 13.5023 42.7395 13.5023 41.6894V39.7556C14.0113 35.1687 17.8718 31.7145 22.4975 31.7134C22.4983 31.7134 22.4991 31.7135 22.4999 31.7135C22.5007 31.7135 22.5015 31.7134 22.5022 31.7134C27.1278 31.7146 30.9882 35.1687 31.4974 39.7556V41.6894ZM43.4007 38.6221C43.2087 38.8825 42.9474 39.0146 42.6237 39.0146H32.8125C32.633 37.9527 32.2915 36.9318 31.8041 35.9846C33.0374 34.1844 35.0423 33.1211 37.2433 33.1211C40.1531 33.1211 42.686 34.9868 43.5459 37.7637C43.6416 38.0726 43.5928 38.3614 43.4007 38.6221Z" fill="#20282D"/>
</g>
<defs>
<clipPath id="clip0_3_1237">
<rect width="45" height="45" fill="white"/>
</clipPath>
</defs>
</svg>
