<svg width="193" height="53" viewBox="0 0 193 53" fill="none" xmlns="http://www.w3.org/2000/svg">
<mask id="mask0_498_931" style="mask-type:alpha" maskUnits="userSpaceOnUse" x="0" y="0" width="53" height="53">
<path d="M26.6121 52.9289C41.1526 52.9176 52.9309 41.1183 52.9195 26.5745C52.9082 12.0307 41.1116 0.249872 26.5711 0.26121C12.0306 0.272547 0.252357 12.0718 0.263697 26.6156C0.275037 41.1594 12.0716 52.9402 26.6121 52.9289Z" fill="#20282D"/>
</mask>
<g mask="url(#mask0_498_931)">
<path d="M36.6696 50.9243C50.1032 45.3598 56.4814 29.9563 50.9156 16.5197C45.3499 3.083 29.9478 -3.29864 16.5142 2.26587C3.08054 7.83038 -3.29763 23.2339 2.26814 36.6705C7.8339 50.1072 23.236 56.4888 36.6696 50.9243Z" fill="#20282D"/>
<mask id="mask1_498_931" style="mask-type:luminance" maskUnits="userSpaceOnUse" x="0" y="0" width="54" height="54">
<path d="M36.7256 51.0595C50.2337 45.4642 56.6472 29.9753 51.0506 16.4642C45.454 2.95308 29.9666 -3.46392 16.4585 2.13142C2.95046 7.72677 -3.46305 23.2156 2.13355 36.7267C7.73016 50.2379 23.2176 56.6549 36.7256 51.0595Z" fill="white"/>
</mask>
<g mask="url(#mask1_498_931)">
<path fill-rule="evenodd" clip-rule="evenodd" d="M40.4204 23.1795L23.7842 39.8156L21.9575 37.9948L13.6779 29.7094L-0.668904 44.0562L-4.31641 40.4028L13.6779 22.4144L15.4987 24.2352L23.7842 32.5206L36.7669 19.532H24.7806V14.3721H45.5743V35.1717H40.4204V23.1795Z" fill="#F2F2F2"/>
</g>
</g>
<path d="M69.5132 31V3H75.3132V31H69.5132ZM80.0516 31V10.16H85.5316V11.88C87.1049 10.4667 89.0516 9.76 91.3716 9.76C92.9983 9.76 94.4249 10.12 95.6516 10.84C96.9049 11.5333 97.8783 12.5067 98.5716 13.76C99.2649 14.9867 99.6116 16.4267 99.6116 18.08V31H94.1316V18.88C94.1316 17.52 93.7449 16.4533 92.9716 15.68C92.1983 14.88 91.1449 14.48 89.8116 14.48C88.8783 14.48 88.0516 14.6667 87.3316 15.04C86.6116 15.3867 86.0116 15.8933 85.5316 16.56V31H80.0516ZM109.39 31L100.47 10.16H106.43L112.15 24.04L117.83 10.16H123.67L114.71 31H109.39ZM135.447 31.4C133.367 31.4 131.474 30.92 129.767 29.96C128.087 29 126.754 27.7067 125.767 26.08C124.78 24.4533 124.287 22.6267 124.287 20.6C124.287 18.5733 124.754 16.7467 125.687 15.12C126.647 13.4933 127.94 12.2 129.567 11.24C131.194 10.28 133.007 9.8 135.007 9.8C137.007 9.8 138.78 10.2933 140.327 11.28C141.874 12.2667 143.087 13.6 143.967 15.28C144.874 16.96 145.327 18.8667 145.327 21V22.44H129.887C130.127 23.2667 130.514 24.0133 131.047 24.68C131.607 25.3467 132.287 25.8667 133.087 26.24C133.914 26.6133 134.794 26.8 135.727 26.8C136.66 26.8 137.514 26.6533 138.287 26.36C139.087 26.0667 139.767 25.6533 140.327 25.12L143.927 28.4C142.647 29.44 141.327 30.2 139.967 30.68C138.634 31.16 137.127 31.4 135.447 31.4ZM129.807 18.52H139.927C139.74 17.6933 139.394 16.9733 138.887 16.36C138.407 15.72 137.82 15.2267 137.127 14.88C136.46 14.5067 135.714 14.32 134.887 14.32C134.034 14.32 133.26 14.4933 132.567 14.84C131.874 15.1867 131.287 15.68 130.807 16.32C130.354 16.9333 130.02 17.6667 129.807 18.52ZM148.684 31V10.16H154.164V11.88C155.738 10.4667 157.684 9.76 160.004 9.76C161.631 9.76 163.058 10.12 164.284 10.84C165.538 11.5333 166.511 12.5067 167.204 13.76C167.898 14.9867 168.244 16.4267 168.244 18.08V31H162.764V18.88C162.764 17.52 162.378 16.4533 161.604 15.68C160.831 14.88 159.778 14.48 158.444 14.48C157.511 14.48 156.684 14.6667 155.964 15.04C155.244 15.3867 154.644 15.8933 154.164 16.56V31H148.684ZM179.035 31.36C177.542 31.36 176.222 31.0933 175.075 30.56C173.929 30 173.035 29.24 172.395 28.28C171.755 27.32 171.435 26.2133 171.435 24.96C171.435 22.96 172.182 21.4133 173.675 20.32C175.195 19.2 177.275 18.64 179.915 18.64C181.729 18.64 183.435 18.92 185.035 19.48V17.96C185.035 16.76 184.662 15.8533 183.915 15.24C183.169 14.6267 182.075 14.32 180.635 14.32C179.755 14.32 178.809 14.4667 177.795 14.76C176.782 15.0267 175.609 15.4533 174.275 16.04L172.275 12C173.929 11.2533 175.502 10.6933 176.995 10.32C178.515 9.94667 180.035 9.76 181.555 9.76C184.355 9.76 186.529 10.44 188.075 11.8C189.649 13.1333 190.435 15.0267 190.435 17.48V31H185.035V29.52C184.182 30.16 183.262 30.6267 182.275 30.92C181.289 31.2133 180.209 31.36 179.035 31.36ZM176.635 24.84C176.635 25.64 176.982 26.28 177.675 26.76C178.369 27.2133 179.289 27.44 180.435 27.44C181.342 27.44 182.182 27.3333 182.955 27.12C183.729 26.88 184.422 26.5333 185.035 26.08V23.04C184.369 22.7733 183.675 22.5733 182.955 22.44C182.235 22.3067 181.462 22.24 180.635 22.24C179.382 22.24 178.395 22.48 177.675 22.96C176.982 23.4133 176.635 24.04 176.635 24.84Z" fill="#20282D"/>
<path d="M68.0937 50V39.15H72.7902C73.5032 39.15 74.1232 39.2688 74.6502 39.5065C75.1772 39.7442 75.5853 40.08 75.8747 40.514C76.164 40.9377 76.3087 41.4388 76.3087 42.0175C76.3087 42.5445 76.1743 43.0095 75.9057 43.4125C75.637 43.8155 75.2598 44.1358 74.7742 44.3735C75.3838 44.5905 75.8592 44.9212 76.2002 45.3655C76.5515 45.7995 76.7272 46.311 76.7272 46.9C76.7272 47.5303 76.5722 48.078 76.2622 48.543C75.9522 49.008 75.5182 49.3697 74.9602 49.628C74.4022 49.876 73.746 50 72.9917 50H68.0937ZM69.7212 43.7535H72.6972C73.3068 43.7535 73.7925 43.6088 74.1542 43.3195C74.5158 43.0302 74.6967 42.6375 74.6967 42.1415C74.6967 41.6455 74.5158 41.2528 74.1542 40.9635C73.7925 40.6742 73.3068 40.5295 72.6972 40.5295H69.7212V43.7535ZM69.7212 48.6205H72.8677C73.5497 48.6205 74.087 48.4603 74.4797 48.14C74.8827 47.8197 75.0842 47.3857 75.0842 46.838C75.0842 46.3007 74.8827 45.8718 74.4797 45.5515C74.087 45.2208 73.5497 45.0555 72.8677 45.0555H69.7212V48.6205ZM81.2087 50.155C80.5991 50.155 80.0617 50.0258 79.5967 49.7675C79.1317 49.5092 78.7701 49.1475 78.5117 48.6825C78.2534 48.2072 78.1242 47.6647 78.1242 47.055V42.1105H79.6587V46.7915C79.6587 47.4115 79.8344 47.9023 80.1857 48.264C80.5474 48.6257 81.0279 48.8065 81.6272 48.8065C82.0509 48.8065 82.4281 48.7187 82.7587 48.543C83.0894 48.357 83.3581 48.0987 83.5647 47.768V42.1105H85.1147V50H83.5647V49.194C82.9551 49.8347 82.1697 50.155 81.2087 50.155ZM89.6622 50.155C88.9802 50.155 88.3395 50.0568 87.7402 49.8605C87.1512 49.6538 86.6397 49.3645 86.2057 48.9925L87.0582 47.9695C87.4612 48.2898 87.8745 48.5378 88.2982 48.7135C88.7322 48.8788 89.1713 48.9615 89.6157 48.9615C90.1737 48.9615 90.6283 48.853 90.9797 48.636C91.331 48.419 91.5067 48.1348 91.5067 47.7835C91.5067 47.4942 91.4033 47.2668 91.1967 47.1015C90.99 46.9362 90.6697 46.8225 90.2357 46.7605L88.8097 46.559C88.0243 46.4453 87.4353 46.2025 87.0427 45.8305C86.65 45.4585 86.4537 44.9625 86.4537 44.3425C86.4537 43.8672 86.5828 43.4538 86.8412 43.1025C87.0995 42.7408 87.4612 42.4618 87.9262 42.2655C88.3912 42.0588 88.9337 41.9555 89.5537 41.9555C90.122 41.9555 90.6697 42.0382 91.1967 42.2035C91.7237 42.3688 92.23 42.6272 92.7157 42.9785L91.9252 44.0015C91.4912 43.7122 91.0675 43.5003 90.6542 43.366C90.2512 43.2317 89.843 43.1645 89.4297 43.1645C88.9543 43.1645 88.572 43.2678 88.2827 43.4745C87.9933 43.6708 87.8487 43.9292 87.8487 44.2495C87.8487 44.5388 87.9468 44.7662 88.1432 44.9315C88.3498 45.0865 88.6857 45.195 89.1507 45.257L90.5767 45.4585C91.362 45.5722 91.9562 45.815 92.3592 46.187C92.7622 46.5487 92.9637 47.0395 92.9637 47.6595C92.9637 48.1348 92.819 48.5637 92.5297 48.946C92.2403 49.318 91.8477 49.6125 91.3517 49.8295C90.8557 50.0465 90.2925 50.155 89.6622 50.155ZM94.1547 50V42.1105H95.7047V50H94.1547ZM94.9297 40.8395C94.6714 40.8395 94.4492 40.7465 94.2632 40.5605C94.0772 40.3642 93.9842 40.1368 93.9842 39.8785C93.9842 39.6098 94.0772 39.3877 94.2632 39.212C94.4492 39.026 94.6714 38.933 94.9297 38.933C95.1984 38.933 95.4257 39.026 95.6117 39.212C95.7977 39.3877 95.8907 39.6098 95.8907 39.8785C95.8907 40.1368 95.7977 40.3642 95.6117 40.5605C95.4257 40.7465 95.1984 40.8395 94.9297 40.8395ZM97.5302 50V42.1105H99.0802V42.9165C99.6899 42.2758 100.48 41.9555 101.452 41.9555C102.061 41.9555 102.594 42.0847 103.048 42.343C103.513 42.6013 103.875 42.963 104.133 43.428C104.402 43.893 104.536 44.4303 104.536 45.04V50H102.986V45.3035C102.986 44.6835 102.811 44.1978 102.459 43.8465C102.118 43.4848 101.638 43.304 101.018 43.304C100.604 43.304 100.232 43.3918 99.9017 43.5675C99.5711 43.7432 99.2972 43.9963 99.0802 44.327V50H97.5302ZM110.107 50.1395C109.332 50.1395 108.629 49.9587 107.999 49.597C107.379 49.2353 106.883 48.7445 106.511 48.1245C106.149 47.5045 105.968 46.8122 105.968 46.0475C105.968 45.2932 106.144 44.6112 106.495 44.0015C106.846 43.3815 107.322 42.8907 107.921 42.529C108.52 42.157 109.187 41.971 109.921 41.971C110.654 41.971 111.305 42.157 111.874 42.529C112.442 42.8907 112.891 43.3867 113.222 44.017C113.563 44.637 113.734 45.3397 113.734 46.125V46.559H107.518C107.601 46.993 107.761 47.3805 107.999 47.7215C108.247 48.0625 108.557 48.3312 108.929 48.5275C109.311 48.7238 109.724 48.822 110.169 48.822C110.551 48.822 110.918 48.7652 111.269 48.6515C111.631 48.5275 111.93 48.3518 112.168 48.1245L113.16 49.101C112.695 49.4523 112.215 49.7158 111.719 49.8915C111.233 50.0568 110.696 50.1395 110.107 50.1395ZM107.534 45.3965H112.199C112.137 44.9832 111.992 44.6215 111.765 44.3115C111.548 43.9912 111.274 43.7432 110.944 43.5675C110.623 43.3815 110.272 43.2885 109.89 43.2885C109.497 43.2885 109.135 43.3763 108.805 43.552C108.474 43.7277 108.195 43.9757 107.968 44.296C107.751 44.606 107.606 44.9728 107.534 45.3965ZM117.998 50.155C117.316 50.155 116.675 50.0568 116.076 49.8605C115.487 49.6538 114.976 49.3645 114.542 48.9925L115.394 47.9695C115.797 48.2898 116.21 48.5378 116.634 48.7135C117.068 48.8788 117.507 48.9615 117.952 48.9615C118.51 48.9615 118.964 48.853 119.316 48.636C119.667 48.419 119.843 48.1348 119.843 47.7835C119.843 47.4942 119.739 47.2668 119.533 47.1015C119.326 46.9362 119.006 46.8225 118.572 46.7605L117.146 46.559C116.36 46.4453 115.771 46.2025 115.379 45.8305C114.986 45.4585 114.79 44.9625 114.79 44.3425C114.79 43.8672 114.919 43.4538 115.177 43.1025C115.435 42.7408 115.797 42.4618 116.262 42.2655C116.727 42.0588 117.27 41.9555 117.89 41.9555C118.458 41.9555 119.006 42.0382 119.533 42.2035C120.06 42.3688 120.566 42.6272 121.052 42.9785L120.261 44.0015C119.827 43.7122 119.403 43.5003 118.99 43.366C118.587 43.2317 118.179 43.1645 117.766 43.1645C117.29 43.1645 116.908 43.2678 116.619 43.4745C116.329 43.6708 116.185 43.9292 116.185 44.2495C116.185 44.5388 116.283 44.7662 116.479 44.9315C116.686 45.0865 117.022 45.195 117.487 45.257L118.913 45.4585C119.698 45.5722 120.292 45.815 120.695 46.187C121.098 46.5487 121.3 47.0395 121.3 47.6595C121.3 48.1348 121.155 48.5637 120.866 48.946C120.576 49.318 120.184 49.6125 119.688 49.8295C119.192 50.0465 118.628 50.155 117.998 50.155ZM125.203 50.155C124.521 50.155 123.881 50.0568 123.281 49.8605C122.692 49.6538 122.181 49.3645 121.747 48.9925L122.599 47.9695C123.002 48.2898 123.416 48.5378 123.839 48.7135C124.273 48.8788 124.712 48.9615 125.157 48.9615C125.715 48.9615 126.169 48.853 126.521 48.636C126.872 48.419 127.048 48.1348 127.048 47.7835C127.048 47.4942 126.944 47.2668 126.738 47.1015C126.531 46.9362 126.211 46.8225 125.777 46.7605L124.351 46.559C123.565 46.4453 122.976 46.2025 122.584 45.8305C122.191 45.4585 121.995 44.9625 121.995 44.3425C121.995 43.8672 122.124 43.4538 122.382 43.1025C122.641 42.7408 123.002 42.4618 123.467 42.2655C123.932 42.0588 124.475 41.9555 125.095 41.9555C125.663 41.9555 126.211 42.0382 126.738 42.2035C127.265 42.3688 127.771 42.6272 128.257 42.9785L127.466 44.0015C127.032 43.7122 126.609 43.5003 126.195 43.366C125.792 43.2317 125.384 43.1645 124.971 43.1645C124.495 43.1645 124.113 43.2678 123.824 43.4745C123.534 43.6708 123.39 43.9292 123.39 44.2495C123.39 44.5388 123.488 44.7662 123.684 44.9315C123.891 45.0865 124.227 45.195 124.692 45.257L126.118 45.4585C126.903 45.5722 127.497 45.815 127.9 46.187C128.303 46.5487 128.505 47.0395 128.505 47.6595C128.505 48.1348 128.36 48.5637 128.071 48.946C127.781 49.318 127.389 49.6125 126.893 49.8295C126.397 50.0465 125.834 50.155 125.203 50.155ZM136.795 50.155C135.927 50.155 135.09 49.9845 134.284 49.6435C133.478 49.3025 132.765 48.822 132.145 48.202L133.137 47.055C133.726 47.6337 134.325 48.0625 134.935 48.3415C135.555 48.6205 136.2 48.76 136.872 48.76C137.399 48.76 137.859 48.6877 138.252 48.543C138.655 48.388 138.965 48.171 139.182 47.892C139.399 47.613 139.507 47.2978 139.507 46.9465C139.507 46.4608 139.337 46.0888 138.996 45.8305C138.655 45.5722 138.091 45.3758 137.306 45.2415L135.493 44.947C134.501 44.7713 133.757 44.451 133.261 43.986C132.775 43.521 132.532 42.901 132.532 42.126C132.532 41.506 132.697 40.9635 133.028 40.4985C133.359 40.0232 133.824 39.6563 134.423 39.398C135.033 39.1397 135.735 39.0105 136.531 39.0105C137.316 39.0105 138.086 39.1397 138.841 39.398C139.605 39.646 140.292 40.0077 140.902 40.483L140.003 41.723C138.835 40.8343 137.652 40.39 136.454 40.39C135.978 40.39 135.565 40.4572 135.214 40.5915C134.862 40.7258 134.588 40.917 134.392 41.165C134.196 41.4027 134.098 41.6817 134.098 42.002C134.098 42.4463 134.247 42.7873 134.547 43.025C134.847 43.2523 135.343 43.4177 136.035 43.521L137.787 43.8155C138.934 44.0015 139.776 44.3373 140.313 44.823C140.85 45.3087 141.119 45.9752 141.119 46.8225C141.119 47.4838 140.938 48.0677 140.577 48.574C140.215 49.07 139.709 49.4575 139.058 49.7365C138.407 50.0155 137.652 50.155 136.795 50.155ZM146.343 50.155C145.579 50.155 144.881 49.9742 144.251 49.6125C143.631 49.2508 143.14 48.76 142.778 48.14C142.417 47.52 142.236 46.8277 142.236 46.063C142.236 45.2983 142.417 44.606 142.778 43.986C143.14 43.366 143.631 42.8752 144.251 42.5135C144.881 42.1415 145.579 41.9555 146.343 41.9555C147.118 41.9555 147.816 42.1415 148.436 42.5135C149.056 42.8752 149.547 43.366 149.908 43.986C150.27 44.606 150.451 45.2983 150.451 46.063C150.451 46.8277 150.27 47.52 149.908 48.14C149.547 48.76 149.056 49.2508 148.436 49.6125C147.816 49.9742 147.118 50.155 146.343 50.155ZM146.343 48.791C146.829 48.791 147.268 48.6722 147.661 48.4345C148.053 48.1865 148.363 47.8558 148.591 47.4425C148.818 47.0292 148.932 46.5642 148.932 46.0475C148.932 45.5412 148.813 45.0865 148.575 44.6835C148.348 44.2702 148.038 43.9395 147.645 43.6915C147.263 43.4435 146.829 43.3195 146.343 43.3195C145.858 43.3195 145.418 43.4435 145.026 43.6915C144.643 43.9395 144.333 44.2702 144.096 44.6835C143.868 45.0865 143.755 45.5412 143.755 46.0475C143.755 46.5642 143.868 47.0292 144.096 47.4425C144.323 47.8558 144.633 48.1865 145.026 48.4345C145.418 48.6722 145.858 48.791 146.343 48.791ZM151.916 50V39.15L153.466 38.8555V50H151.916ZM158.345 50.155C157.736 50.155 157.198 50.0258 156.733 49.7675C156.268 49.5092 155.907 49.1475 155.648 48.6825C155.39 48.2072 155.261 47.6647 155.261 47.055V42.1105H156.795V46.7915C156.795 47.4115 156.971 47.9023 157.322 48.264C157.684 48.6257 158.165 48.8065 158.764 48.8065C159.188 48.8065 159.565 48.7187 159.895 48.543C160.226 48.357 160.495 48.0987 160.701 47.768V42.1105H162.251V50H160.701V49.194C160.092 49.8347 159.306 50.155 158.345 50.155ZM167.465 50.1395C166.701 50.1395 166.117 49.9638 165.714 49.6125C165.311 49.2508 165.109 48.729 165.109 48.047V43.4125H163.435V42.1105H165.109V40.0955L166.644 39.7235V42.1105H168.969V43.4125H166.644V47.6905C166.644 48.0935 166.732 48.3828 166.907 48.5585C167.093 48.7238 167.393 48.8065 167.806 48.8065C168.023 48.8065 168.215 48.791 168.38 48.76C168.556 48.729 168.742 48.6825 168.938 48.6205V49.9225C168.731 49.9948 168.488 50.0465 168.209 50.0775C167.941 50.1188 167.693 50.1395 167.465 50.1395ZM170.111 50V42.1105H171.661V50H170.111ZM170.886 40.8395C170.627 40.8395 170.405 40.7465 170.219 40.5605C170.033 40.3642 169.94 40.1368 169.94 39.8785C169.94 39.6098 170.033 39.3877 170.219 39.212C170.405 39.026 170.627 38.933 170.886 38.933C171.154 38.933 171.382 39.026 171.568 39.212C171.754 39.3877 171.847 39.6098 171.847 39.8785C171.847 40.1368 171.754 40.3642 171.568 40.5605C171.382 40.7465 171.154 40.8395 170.886 40.8395ZM177.237 50.155C176.473 50.155 175.775 49.9742 175.145 49.6125C174.525 49.2508 174.034 48.76 173.672 48.14C173.311 47.52 173.13 46.8277 173.13 46.063C173.13 45.2983 173.311 44.606 173.672 43.986C174.034 43.366 174.525 42.8752 175.145 42.5135C175.775 42.1415 176.473 41.9555 177.237 41.9555C178.012 41.9555 178.71 42.1415 179.33 42.5135C179.95 42.8752 180.441 43.366 180.802 43.986C181.164 44.606 181.345 45.2983 181.345 46.063C181.345 46.8277 181.164 47.52 180.802 48.14C180.441 48.76 179.95 49.2508 179.33 49.6125C178.71 49.9742 178.012 50.155 177.237 50.155ZM177.237 48.791C177.723 48.791 178.162 48.6722 178.555 48.4345C178.947 48.1865 179.257 47.8558 179.485 47.4425C179.712 47.0292 179.826 46.5642 179.826 46.0475C179.826 45.5412 179.707 45.0865 179.469 44.6835C179.242 44.2702 178.932 43.9395 178.539 43.6915C178.157 43.4435 177.723 43.3195 177.237 43.3195C176.752 43.3195 176.312 43.4435 175.92 43.6915C175.537 43.9395 175.227 44.2702 174.99 44.6835C174.762 45.0865 174.649 45.5412 174.649 46.0475C174.649 46.5642 174.762 47.0292 174.99 47.4425C175.217 47.8558 175.527 48.1865 175.92 48.4345C176.312 48.6722 176.752 48.791 177.237 48.791ZM182.81 50V42.1105H184.36V42.9165C184.97 42.2758 185.761 41.9555 186.732 41.9555C187.342 41.9555 187.874 42.0847 188.328 42.343C188.793 42.6013 189.155 42.963 189.413 43.428C189.682 43.893 189.816 44.4303 189.816 45.04V50H188.266V45.3035C188.266 44.6835 188.091 44.1978 187.739 43.8465C187.398 43.4848 186.918 43.304 186.298 43.304C185.885 43.304 185.513 43.3918 185.182 43.5675C184.851 43.7432 184.577 43.9963 184.36 44.327V50H182.81Z" fill="#20282D"/>
</svg>
