<svg width="190" height="57" viewBox="0 0 190 57" fill="none" xmlns="http://www.w3.org/2000/svg">
<path d="M27.072 32.352C25.376 32.352 23.632 32.608 21.84 33.12C17.68 39.616 13.744 45.088 10.032 49.536C6.352 54.016 3.68 56.256 2.016 56.256C0.896 56.256 0.336 55.632 0.336 54.384C0.336 53.168 0.88 51.536 1.968 49.488C3.056 47.44 4.48 45.328 6.24 43.152C8.032 41.008 10.208 38.928 12.768 36.912C15.36 34.928 17.984 33.44 20.64 32.448C23.936 26.816 26.768 21.504 29.136 16.512C31.504 11.52 32.688 8.304 32.688 6.864C32.688 4.976 31.952 4.032 30.48 4.032C29.04 4.032 27.072 4.912 24.576 6.672C22.08 8.432 19.664 10.528 17.328 12.96C14.992 15.392 12.96 18 11.232 20.784C9.536 23.568 8.688 25.808 8.688 27.504C8.688 29.2 9.504 30.048 11.136 30.048C12.864 30.048 14.8 29.024 16.944 26.976C19.12 24.928 20.384 23.184 20.736 21.744C20.8 21.52 20.944 21.408 21.168 21.408C21.424 21.408 21.552 21.52 21.552 21.744C21.552 23.44 20.064 25.504 17.088 27.936C14.112 30.336 11.584 31.536 9.504 31.536C7.84 31.536 7.008 30.528 7.008 28.512C7.008 26.464 7.952 23.904 9.84 20.832C11.76 17.76 14.016 14.896 16.608 12.24C19.232 9.584 21.968 7.312 24.816 5.424C27.696 3.536 30.032 2.592 31.824 2.592C33.968 2.592 35.04 3.984 35.04 6.768C35.04 8.432 33.856 11.632 31.488 16.368C29.12 21.104 26.192 26.24 22.704 31.776C24.528 31.296 25.952 31.056 26.976 31.056C28.032 31.056 28.832 31.216 29.376 31.536C29.952 31.824 30.24 32.208 30.24 32.688C30.24 33.712 29.904 34.656 29.232 35.52C28.592 36.384 27.84 36.816 26.976 36.816C26.848 36.816 26.784 36.768 26.784 36.672C26.784 36.352 27.008 36.08 27.456 35.856C28.064 35.312 28.368 34.592 28.368 33.696C28.368 32.8 27.936 32.352 27.072 32.352ZM2.304 52.992C2.304 53.728 2.592 54.096 3.168 54.096C4.704 54.096 6.96 52.192 9.936 48.384C12.944 44.576 16.224 39.744 19.776 33.888C16.672 35.136 13.712 37.088 10.896 39.744C8.08 42.432 5.952 44.992 4.512 47.424C3.04 49.856 2.304 51.712 2.304 52.992ZM41.7788 32.64C40.7868 33.248 39.6348 33.552 38.3228 33.552H37.7468C36.8828 34.544 35.9548 35.36 34.9628 36C34.0028 36.608 33.1708 36.912 32.4668 36.912C31.4747 36.912 30.9787 36.272 30.9787 34.992C30.9787 33.712 31.6668 32.224 33.0428 30.528C32.9148 30.176 32.8508 29.744 32.8508 29.232C32.8508 28.112 33.3308 27.152 34.2908 26.352C35.2828 25.52 36.2428 25.104 37.1708 25.104C39.1228 25.104 40.0988 26.16 40.0988 28.272C40.0988 29.68 39.4908 31.216 38.2747 32.88H38.8508C39.8748 32.88 40.7548 32.64 41.4908 32.16C41.5868 32.064 41.7148 32.016 41.8748 32.016C42.0348 32.016 42.1148 32.08 42.1148 32.208C42.1148 32.304 42.0028 32.448 41.7788 32.64ZM37.1708 27.12C37.3308 27.056 37.4588 27.024 37.5547 27.024C37.6508 27.024 37.6988 27.104 37.6988 27.264C37.6988 27.392 37.5228 27.584 37.1708 27.84C35.8908 28.832 34.9308 29.728 34.2908 30.528C34.9948 31.648 36.0668 32.384 37.5068 32.736C38.7548 31.264 39.3788 29.888 39.3788 28.608C39.3788 27.872 39.1388 27.312 38.6588 26.928C38.1788 26.544 37.5548 26.352 36.7868 26.352C36.0508 26.352 35.3628 26.576 34.7228 27.024C34.0828 27.44 33.7628 27.904 33.7628 28.416C33.7628 28.896 33.8108 29.28 33.9068 29.568C34.8988 28.544 35.9868 27.728 37.1708 27.12ZM33.6188 31.584C33.1068 32.448 32.8508 33.408 32.8508 34.464C32.8508 35.04 33.1068 35.328 33.6188 35.328C34.4828 35.328 35.5548 34.688 36.8348 33.408C35.3948 33.152 34.3228 32.544 33.6188 31.584ZM41.1562 32.352C41.7643 32 42.5643 31.44 43.5563 30.672C45.9883 28.752 47.2843 27.792 47.4443 27.792C47.9243 27.792 48.1643 28 48.1643 28.416C48.1643 28.832 47.9083 29.472 47.3963 30.336C46.9163 31.2 46.3563 32.096 45.7163 33.024C45.1083 33.952 44.7563 34.512 44.6603 34.704C44.6923 34.736 44.7563 34.752 44.8523 34.752C44.9803 34.752 45.6203 34.336 46.7723 33.504C47.9243 32.64 49.1243 31.744 50.3723 30.816C51.6203 29.856 52.3563 29.312 52.5803 29.184C52.8043 29.024 53.0123 28.944 53.2043 28.944C53.5883 28.976 53.7803 29.2 53.7803 29.616C53.7803 29.776 53.2363 30.592 52.1483 32.064C51.0603 33.504 50.5163 34.432 50.5163 34.848C50.5163 35.136 50.8523 35.28 51.5243 35.28C52.2283 35.28 53.2523 34.976 54.5963 34.368C55.9403 33.728 57.1243 33.088 58.1483 32.448L59.6843 31.488C59.7163 31.552 59.7323 31.68 59.7323 31.872C59.7323 32.064 59.5883 32.224 59.3003 32.352C54.9803 35.296 51.9723 36.768 50.2763 36.768C49.2843 36.768 48.7883 36.384 48.7883 35.616C48.7883 34.88 48.9963 34.176 49.4123 33.504C49.8603 32.832 50.2443 32.272 50.5643 31.824C50.8843 31.344 51.0443 31.088 51.0443 31.056C49.5723 32.112 47.8283 33.376 45.8123 34.848C43.7963 36.32 42.6603 37.056 42.4043 37.056C42.2123 37.056 42.1163 36.832 42.1163 36.384C42.1163 35.936 42.7403 34.768 43.9883 32.88C45.2683 30.992 45.9083 29.984 45.9083 29.856C45.9083 29.728 45.8763 29.664 45.8123 29.664L45.3323 29.904L42.9323 31.824C42.7723 31.952 42.4683 32.16 42.0203 32.448C41.5723 32.736 41.2843 32.88 41.1562 32.88C41.0602 32.88 41.0122 32.816 41.0122 32.688C41.0122 32.528 41.0602 32.416 41.1562 32.352ZM67.3845 30.288C67.1925 30.288 67.0965 30.176 67.0965 29.952L67.2405 29.616C67.8165 29.072 68.1045 28.608 68.1045 28.224C68.1045 27.744 67.8485 27.504 67.3365 27.504C66.2165 27.504 64.6965 28.288 62.7765 29.856C60.8885 31.392 59.9445 32.768 59.9445 33.984C59.9445 34.496 60.2805 34.752 60.9525 34.752C61.6245 34.752 62.3925 34.48 63.2565 33.936C64.1525 33.36 64.9045 32.8 65.5125 32.256C66.1525 31.68 66.5045 31.392 66.5685 31.392C66.8885 31.424 67.0485 31.584 67.0485 31.872C67.0485 32 66.7925 32.416 66.2805 33.12C65.8005 33.824 65.5605 34.384 65.5605 34.8C65.5605 35.12 65.8165 35.28 66.3285 35.28C66.8725 35.28 67.8165 34.976 69.1605 34.368C70.5045 33.728 71.6885 33.088 72.7125 32.448L74.2485 31.488C74.2805 31.552 74.2965 31.68 74.2965 31.872C74.2965 32.064 74.1525 32.224 73.8645 32.352C69.5445 35.296 66.5365 36.768 64.8405 36.768C64.0085 36.768 63.5925 36.352 63.5925 35.52C63.5925 35.168 63.6565 34.8 63.7845 34.416C63.5605 34.672 62.8885 35.072 61.7685 35.616C60.6805 36.128 59.7045 36.384 58.8405 36.384C57.9765 36.384 57.5445 35.984 57.5445 35.184C57.5445 33.296 58.8565 31.376 61.4805 29.424C64.1045 27.44 66.3125 26.448 68.1045 26.448C69.1605 26.448 69.6885 26.896 69.6885 27.792C69.6885 28.304 69.3685 28.848 68.7285 29.424C68.0885 30 67.6405 30.288 67.3845 30.288ZM73.8998 20.16C76.0758 20.16 78.2198 20.144 80.3318 20.112C83.7558 15.728 86.0918 13.536 87.3398 13.536C87.7878 13.536 88.0118 13.776 88.0118 14.256C88.0118 15.792 86.8918 17.712 84.6518 20.016L88.2998 19.968C90.7318 19.872 92.2198 19.824 92.7638 19.824C93.3078 19.824 93.5798 19.888 93.5798 20.016C93.5798 20.624 93.1638 20.944 92.3318 20.976L83.3078 21.36C81.7398 22.832 79.8038 24.384 77.4998 26.016C75.0678 30.016 73.8518 32.736 73.8518 34.176C73.8518 34.912 74.3158 35.28 75.2438 35.28C76.2038 35.28 77.7078 34.768 79.7558 33.744L83.6438 31.488C83.6758 31.552 83.6918 31.68 83.6918 31.872C83.6918 32.064 83.5478 32.224 83.2598 32.352C82.2358 33.056 81.1158 33.76 79.8997 34.464C77.3077 35.776 75.3238 36.432 73.9478 36.432C73.3078 36.432 72.8117 36.304 72.4597 36.048C72.1077 35.792 71.9157 35.536 71.8837 35.28L71.7877 34.896C71.7877 33.808 72.5237 31.984 73.9958 29.424C75.4678 26.832 77.2118 24.192 79.2278 21.504C77.6918 21.568 76.2358 21.6 74.8598 21.6C73.4838 21.6 72.7957 21.44 72.7957 21.12C72.7957 20.512 73.1638 20.192 73.8998 20.16ZM86.5238 15.264C86.5238 15.104 86.4598 15.024 86.3318 15.024C85.5958 15.024 83.9638 16.704 81.4358 20.064H83.8358C85.6278 18.112 86.5238 16.512 86.5238 15.264ZM82.4918 21.408C81.4678 21.408 80.7798 21.424 80.4278 21.456C80.1398 21.872 79.7398 22.48 79.2278 23.28C78.7158 24.08 78.3638 24.624 78.1718 24.912C79.8358 23.696 81.2758 22.528 82.4918 21.408ZM83.1743 35.376C83.4623 35.376 85.0623 34.112 87.9743 31.584C90.9183 29.024 92.6463 27.744 93.1583 27.744C93.6703 27.744 93.9263 27.968 93.9263 28.416C93.9263 28.768 93.6063 29.312 92.9663 30.048C92.3263 30.784 91.6863 31.584 91.0463 32.448C90.4383 33.312 90.1343 34.08 90.1343 34.752C90.1343 35.104 90.3903 35.28 90.9023 35.28C91.4463 35.28 92.3903 34.976 93.7343 34.368C95.0783 33.728 96.2623 33.088 97.2863 32.448L98.8223 31.488C98.8543 31.552 98.8703 31.68 98.8703 31.872C98.8703 32.064 98.7263 32.224 98.4383 32.352C94.1183 35.296 91.1103 36.768 89.4143 36.768C88.5823 36.768 88.1663 36.32 88.1663 35.424C88.1663 34.816 88.3903 34.08 88.8383 33.216C89.2863 32.352 89.7343 31.632 90.1823 31.056L90.8063 30.192C89.3663 31.28 87.8783 32.512 86.3423 33.888C84.8063 35.232 83.6383 36.24 82.8383 36.912C82.0382 37.616 81.4782 37.968 81.1582 37.968C80.8382 37.968 80.6782 37.728 80.6782 37.248C80.6782 36.8 81.4302 35.2 82.9343 32.448C84.4383 29.696 86.1663 26.736 88.1183 23.568C90.1023 20.368 92.1663 17.472 94.3103 14.88C96.4863 12.288 98.1343 10.992 99.2543 10.992C99.7343 10.992 100.07 11.216 100.262 11.664C100.358 11.824 100.406 12.016 100.406 12.24C100.406 14.448 97.0943 18.688 90.4703 24.96C89.2223 26.176 88.0063 27.296 86.8223 28.32C84.3903 32.416 83.1743 34.768 83.1743 35.376ZM98.8223 12.768C98.8223 12.448 98.7423 12.288 98.5823 12.288C97.9423 12.288 96.5983 13.696 94.5503 16.512C92.5023 19.328 90.3263 22.608 88.0223 26.352C95.2223 19.792 98.8223 15.264 98.8223 12.768ZM108.06 32.64C107.068 33.248 105.916 33.552 104.604 33.552H104.028C103.164 34.544 102.236 35.36 101.244 36C100.284 36.608 99.452 36.912 98.748 36.912C97.756 36.912 97.26 36.272 97.26 34.992C97.26 33.712 97.948 32.224 99.324 30.528C99.196 30.176 99.132 29.744 99.132 29.232C99.132 28.112 99.612 27.152 100.572 26.352C101.564 25.52 102.524 25.104 103.452 25.104C105.404 25.104 106.38 26.16 106.38 28.272C106.38 29.68 105.772 31.216 104.556 32.88H105.132C106.156 32.88 107.036 32.64 107.772 32.16C107.868 32.064 107.996 32.016 108.156 32.016C108.316 32.016 108.396 32.08 108.396 32.208C108.396 32.304 108.284 32.448 108.06 32.64ZM103.452 27.12C103.612 27.056 103.74 27.024 103.836 27.024C103.932 27.024 103.98 27.104 103.98 27.264C103.98 27.392 103.804 27.584 103.452 27.84C102.172 28.832 101.212 29.728 100.572 30.528C101.276 31.648 102.348 32.384 103.788 32.736C105.036 31.264 105.66 29.888 105.66 28.608C105.66 27.872 105.42 27.312 104.94 26.928C104.46 26.544 103.836 26.352 103.068 26.352C102.332 26.352 101.644 26.576 101.004 27.024C100.364 27.44 100.044 27.904 100.044 28.416C100.044 28.896 100.092 29.28 100.188 29.568C101.18 28.544 102.268 27.728 103.452 27.12ZM99.9 31.584C99.388 32.448 99.132 33.408 99.132 34.464C99.132 35.04 99.388 35.328 99.9 35.328C100.764 35.328 101.836 34.688 103.116 33.408C101.676 33.152 100.604 32.544 99.9 31.584ZM107.438 32.352C108.046 32 108.846 31.44 109.838 30.672C112.27 28.752 113.566 27.792 113.726 27.792C114.206 27.792 114.446 28 114.446 28.416C114.446 28.832 114.19 29.472 113.678 30.336C113.198 31.2 112.638 32.096 111.998 33.024C111.39 33.952 111.038 34.512 110.942 34.704C110.974 34.736 111.038 34.752 111.134 34.752C111.262 34.752 111.902 34.336 113.054 33.504C114.206 32.64 115.406 31.744 116.654 30.816C117.902 29.856 118.638 29.312 118.862 29.184C119.086 29.024 119.294 28.944 119.486 28.944C119.87 28.976 120.062 29.2 120.062 29.616C120.062 29.776 119.518 30.592 118.43 32.064C117.342 33.504 116.798 34.432 116.798 34.848C116.798 35.136 117.134 35.28 117.806 35.28C118.51 35.28 119.534 34.976 120.878 34.368C122.222 33.728 123.406 33.088 124.43 32.448L125.966 31.488C125.998 31.552 126.014 31.68 126.014 31.872C126.014 32.064 125.87 32.224 125.582 32.352C121.262 35.296 118.254 36.768 116.558 36.768C115.566 36.768 115.07 36.384 115.07 35.616C115.07 34.88 115.278 34.176 115.694 33.504C116.142 32.832 116.526 32.272 116.846 31.824C117.166 31.344 117.326 31.088 117.326 31.056C115.854 32.112 114.11 33.376 112.094 34.848C110.078 36.32 108.942 37.056 108.686 37.056C108.494 37.056 108.398 36.832 108.398 36.384C108.398 35.936 109.022 34.768 110.27 32.88C111.55 30.992 112.19 29.984 112.19 29.856C112.19 29.728 112.158 29.664 112.094 29.664L111.614 29.904L109.214 31.824C109.054 31.952 108.75 32.16 108.302 32.448C107.854 32.736 107.566 32.88 107.438 32.88C107.341 32.88 107.293 32.816 107.293 32.688C107.293 32.528 107.341 32.416 107.438 32.352ZM164.643 31.968C164.643 33.216 163.795 34.048 162.099 34.464C162.003 34.464 161.955 34.4 161.955 34.272C161.955 34.144 162.067 34 162.291 33.84C162.931 33.36 163.251 32.832 163.251 32.256C163.251 31.136 162.323 30.304 160.467 29.76C157.363 32.576 154.115 34.816 150.723 36.48C147.331 38.176 144.147 39.024 141.171 39.024C138.899 39.024 137.763 38.224 137.763 36.624C137.763 35.056 138.787 33.6 140.835 32.256C142.883 30.88 145.331 29.84 148.179 29.136C151.027 28.432 153.491 28.08 155.571 28.08C157.651 28.08 159.203 28.192 160.227 28.416C163.363 25.376 165.923 22.208 167.907 18.912C169.891 15.584 170.883 12.672 170.883 10.176C170.883 7.648 169.939 5.696 168.051 4.32C166.195 2.944 163.379 2.256 159.603 2.256C155.827 2.256 151.907 2.944 147.843 4.32C143.811 5.664 140.387 7.44 137.571 9.648C134.755 11.856 133.347 14.032 133.347 16.176C133.347 17.392 134.099 18 135.603 18C137.747 18 139.859 17.472 141.939 16.416C144.019 15.328 146.739 13.376 150.099 10.56C150.515 10.08 150.819 9.84 151.011 9.84C151.331 9.84 151.491 9.952 151.491 10.176C151.491 10.24 151.379 10.464 151.155 10.848C150.323 11.68 149.155 12.688 147.651 13.872C146.147 15.056 144.755 16.048 143.475 16.848C142.195 17.648 140.739 18.368 139.107 19.008C137.507 19.648 136.051 19.968 134.739 19.968C132.467 19.968 131.331 18.96 131.331 16.944C131.331 14.672 132.963 12.24 136.227 9.648C139.459 7.056 143.411 4.912 148.083 3.216C152.755 1.488 157.091 0.623998 161.091 0.623998C165.091 0.623998 168.051 1.376 169.971 2.88C171.891 4.384 172.851 6.48 172.851 9.168C172.851 11.856 171.795 14.992 169.683 18.576C167.603 22.16 164.899 25.552 161.571 28.752C163.619 29.392 164.643 30.464 164.643 31.968ZM159.075 29.472C158.019 29.312 156.627 29.232 154.899 29.232C153.203 29.232 151.171 29.504 148.803 30.048C146.435 30.592 144.387 31.44 142.659 32.592C140.963 33.744 140.115 35.04 140.115 36.48C140.115 37.536 140.803 38.064 142.179 38.064C144.611 38.064 147.315 37.28 150.291 35.712C153.299 34.144 156.227 32.064 159.075 29.472ZM159.075 4.992C159.075 5.152 157.187 8.56 153.411 15.216C149.635 21.872 147.187 26.144 146.067 28.032C145.875 28.448 145.523 28.768 145.011 28.992C144.499 29.216 144.099 29.328 143.811 29.328C143.555 29.328 143.427 29.264 143.427 29.136C143.427 28.976 144.547 26.976 146.787 23.136C153.475 11.68 156.771 5.936 156.675 5.904C156.867 5.584 157.187 5.344 157.635 5.184L158.835 4.8L159.075 4.992ZM176.451 32.64C175.459 33.248 174.307 33.552 172.995 33.552H172.419C171.555 34.544 170.627 35.36 169.635 36C168.675 36.608 167.843 36.912 167.139 36.912C166.147 36.912 165.651 36.272 165.651 34.992C165.651 33.712 166.339 32.224 167.715 30.528C167.587 30.176 167.523 29.744 167.523 29.232C167.523 28.112 168.003 27.152 168.963 26.352C169.955 25.52 170.915 25.104 171.843 25.104C173.795 25.104 174.771 26.16 174.771 28.272C174.771 29.68 174.163 31.216 172.947 32.88H173.523C174.547 32.88 175.427 32.64 176.163 32.16C176.259 32.064 176.387 32.016 176.547 32.016C176.707 32.016 176.787 32.08 176.787 32.208C176.787 32.304 176.675 32.448 176.451 32.64ZM171.843 27.12C172.003 27.056 172.131 27.024 172.227 27.024C172.323 27.024 172.371 27.104 172.371 27.264C172.371 27.392 172.195 27.584 171.843 27.84C170.563 28.832 169.603 29.728 168.963 30.528C169.667 31.648 170.739 32.384 172.179 32.736C173.427 31.264 174.051 29.888 174.051 28.608C174.051 27.872 173.811 27.312 173.331 26.928C172.851 26.544 172.227 26.352 171.459 26.352C170.723 26.352 170.035 26.576 169.395 27.024C168.755 27.44 168.435 27.904 168.435 28.416C168.435 28.896 168.483 29.28 168.579 29.568C169.571 28.544 170.659 27.728 171.843 27.12ZM168.291 31.584C167.779 32.448 167.523 33.408 167.523 34.464C167.523 35.04 167.779 35.328 168.291 35.328C169.155 35.328 170.227 34.688 171.507 33.408C170.067 33.152 168.995 32.544 168.291 31.584ZM180.157 31.344C178.237 31.344 177.277 30.928 177.277 30.096C177.277 29.104 178.413 27.936 180.685 26.592C182.957 25.216 185.005 24.528 186.829 24.528C187.757 24.528 188.221 24.816 188.221 25.392C188.221 25.712 187.981 26.064 187.501 26.448C187.021 26.832 186.557 27.136 186.109 27.36C185.661 27.584 185.405 27.696 185.341 27.696C185.149 27.696 185.021 27.616 184.957 27.456C184.893 27.232 185.053 27.008 185.437 26.784C185.853 26.528 186.061 26.256 186.061 25.968C186.061 25.68 185.693 25.536 184.957 25.536C184.253 25.536 183.133 26.048 181.597 27.072C180.061 28.064 179.293 28.88 179.293 29.52C179.293 30 179.853 30.24 180.973 30.24C181.165 30.24 181.517 30.224 182.029 30.192C182.541 30.16 182.797 30.224 182.797 30.384C182.797 30.544 181.997 31.12 180.397 32.112C178.829 33.104 178.045 33.952 178.045 34.656C178.045 35.456 178.557 35.856 179.581 35.856C180.637 35.856 181.821 35.584 183.133 35.04C185.245 34.112 187.165 33.12 188.893 32.064L189.805 31.488C189.837 31.552 189.853 31.68 189.853 31.872C189.853 32.064 189.709 32.224 189.421 32.352C187.725 33.504 185.869 34.608 183.853 35.664C181.837 36.688 180.013 37.2 178.381 37.2C176.781 37.2 175.981 36.672 175.981 35.616C175.981 34.528 177.373 33.104 180.157 31.344Z" fill="#1C2539"/>
</svg>
